<mxfile host="www.draw.io" modified="2020-02-06T04:50:43.216Z" agent="Mozilla/5.0 (Windows NT 10.0; Win64; x64) AppleWebKit/537.36 (KHTML, like Gecko) Chrome/79.0.3945.130 Safari/537.36" etag="lXqrLaJ-SJjqf7dbjiMM" version="12.6.5" type="github">
  <diagram id="dWi0E7cXbGD9nPuObZve" name="Page-2">
    <mxGraphModel dx="1662" dy="772" grid="1" gridSize="10" guides="1" tooltips="1" connect="1" arrows="1" fold="1" page="1" pageScale="1" pageWidth="1169" pageHeight="827" math="0" shadow="0">
      <root>
        <mxCell id="3Ijdbuu_0H5kMbtF8D1f-0"/>
        <mxCell id="3Ijdbuu_0H5kMbtF8D1f-1" parent="3Ijdbuu_0H5kMbtF8D1f-0"/>
        <mxCell id="WkgVPscuOhWLp71xP_SW-0" value="START" style="strokeWidth=2;html=1;shape=mxgraph.flowchart.terminator;whiteSpace=wrap;fillColor=#dae8fc;strokeColor=#6c8ebf;" parent="3Ijdbuu_0H5kMbtF8D1f-1" vertex="1">
          <mxGeometry x="80" y="20" width="120" height="40" as="geometry"/>
        </mxCell>
        <mxCell id="4v_ZqnaojmBZI71lkWK2-0" style="edgeStyle=orthogonalEdgeStyle;rounded=0;orthogonalLoop=1;jettySize=auto;html=1;entryX=0.5;entryY=0;entryDx=0;entryDy=0;strokeColor=#000000;fontColor=#000000;" parent="3Ijdbuu_0H5kMbtF8D1f-1" target="4v_ZqnaojmBZI71lkWK2-1" edge="1">
          <mxGeometry relative="1" as="geometry">
            <mxPoint x="143.75" y="137.5" as="sourcePoint"/>
          </mxGeometry>
        </mxCell>
        <mxCell id="4v_ZqnaojmBZI71lkWK2-92" value="" style="edgeStyle=orthogonalEdgeStyle;rounded=0;orthogonalLoop=1;jettySize=auto;html=1;entryX=0.457;entryY=-0.018;entryDx=0;entryDy=0;entryPerimeter=0;" parent="3Ijdbuu_0H5kMbtF8D1f-1" source="4v_ZqnaojmBZI71lkWK2-1" target="4v_ZqnaojmBZI71lkWK2-6" edge="1">
          <mxGeometry relative="1" as="geometry">
            <mxPoint x="136.25" y="308" as="targetPoint"/>
          </mxGeometry>
        </mxCell>
        <mxCell id="4v_ZqnaojmBZI71lkWK2-1" value="ADB Server를 내림&lt;br&gt;(kill-server)" style="rounded=1;whiteSpace=wrap;html=1;absoluteArcSize=1;arcSize=14;strokeWidth=2;fontColor=#333333;fillColor=#f5f5f5;strokeColor=#666666;" parent="3Ijdbuu_0H5kMbtF8D1f-1" vertex="1">
          <mxGeometry x="61.25" y="168" width="150" height="60" as="geometry"/>
        </mxCell>
        <mxCell id="4v_ZqnaojmBZI71lkWK2-3" style="edgeStyle=orthogonalEdgeStyle;rounded=0;orthogonalLoop=1;jettySize=auto;html=1;entryX=0.5;entryY=0;entryDx=0;entryDy=0;strokeColor=#000000;fontColor=#000000;" parent="3Ijdbuu_0H5kMbtF8D1f-1" target="4v_ZqnaojmBZI71lkWK2-4" edge="1">
          <mxGeometry relative="1" as="geometry">
            <mxPoint x="143.75" y="299.4999999999998" as="sourcePoint"/>
          </mxGeometry>
        </mxCell>
        <mxCell id="4v_ZqnaojmBZI71lkWK2-94" value="" style="edgeStyle=orthogonalEdgeStyle;rounded=0;orthogonalLoop=1;jettySize=auto;html=1;" parent="3Ijdbuu_0H5kMbtF8D1f-1" source="4v_ZqnaojmBZI71lkWK2-4" target="4v_ZqnaojmBZI71lkWK2-11" edge="1">
          <mxGeometry relative="1" as="geometry"/>
        </mxCell>
        <mxCell id="4v_ZqnaojmBZI71lkWK2-4" value="ADB Server를 시작&lt;br&gt;(start-server)" style="rounded=1;whiteSpace=wrap;html=1;absoluteArcSize=1;arcSize=14;strokeWidth=2;fontColor=#333333;fillColor=#f5f5f5;strokeColor=#666666;" parent="3Ijdbuu_0H5kMbtF8D1f-1" vertex="1">
          <mxGeometry x="68.75" y="330" width="150" height="60" as="geometry"/>
        </mxCell>
        <mxCell id="4v_ZqnaojmBZI71lkWK2-82" value="" style="edgeStyle=orthogonalEdgeStyle;rounded=0;orthogonalLoop=1;jettySize=auto;html=1;" parent="3Ijdbuu_0H5kMbtF8D1f-1" source="4v_ZqnaojmBZI71lkWK2-5" target="4v_ZqnaojmBZI71lkWK2-1" edge="1">
          <mxGeometry relative="1" as="geometry"/>
        </mxCell>
        <mxCell id="4v_ZqnaojmBZI71lkWK2-5" value="&lt;span style=&quot;white-space: normal&quot;&gt;Kill - Server 출력&lt;/span&gt;" style="shape=parallelogram;html=1;strokeWidth=2;perimeter=parallelogramPerimeter;whiteSpace=wrap;rounded=1;arcSize=12;size=0.23;fillColor=#d5e8d4;strokeColor=#82b366;" parent="3Ijdbuu_0H5kMbtF8D1f-1" vertex="1">
          <mxGeometry x="53.75" y="100" width="165" height="37.5" as="geometry"/>
        </mxCell>
        <mxCell id="4v_ZqnaojmBZI71lkWK2-93" value="" style="edgeStyle=orthogonalEdgeStyle;rounded=0;orthogonalLoop=1;jettySize=auto;html=1;" parent="3Ijdbuu_0H5kMbtF8D1f-1" source="4v_ZqnaojmBZI71lkWK2-6" target="4v_ZqnaojmBZI71lkWK2-4" edge="1">
          <mxGeometry relative="1" as="geometry"/>
        </mxCell>
        <mxCell id="4v_ZqnaojmBZI71lkWK2-6" value="&lt;span style=&quot;white-space: normal&quot;&gt;Start - Server 출력&lt;/span&gt;" style="shape=parallelogram;html=1;strokeWidth=2;perimeter=parallelogramPerimeter;whiteSpace=wrap;rounded=1;arcSize=12;size=0.23;fillColor=#d5e8d4;strokeColor=#82b366;" parent="3Ijdbuu_0H5kMbtF8D1f-1" vertex="1">
          <mxGeometry x="61.25" y="265" width="165" height="37.5" as="geometry"/>
        </mxCell>
        <mxCell id="4v_ZqnaojmBZI71lkWK2-8" style="edgeStyle=orthogonalEdgeStyle;rounded=0;orthogonalLoop=1;jettySize=auto;html=1;strokeColor=#000000;fontColor=#000000;exitX=0.5;exitY=1;exitDx=0;exitDy=0;exitPerimeter=0;" parent="3Ijdbuu_0H5kMbtF8D1f-1" source="WkgVPscuOhWLp71xP_SW-0" edge="1">
          <mxGeometry relative="1" as="geometry">
            <mxPoint x="153.75" y="147.5" as="sourcePoint"/>
            <mxPoint x="140" y="100" as="targetPoint"/>
          </mxGeometry>
        </mxCell>
        <mxCell id="4v_ZqnaojmBZI71lkWK2-9" style="edgeStyle=orthogonalEdgeStyle;rounded=0;orthogonalLoop=1;jettySize=auto;html=1;exitX=1;exitY=0.5;exitDx=0;exitDy=0;exitPerimeter=0;entryX=0;entryY=0.5;entryDx=0;entryDy=0;strokeColor=#FF0000;" parent="3Ijdbuu_0H5kMbtF8D1f-1" source="4v_ZqnaojmBZI71lkWK2-11" target="4v_ZqnaojmBZI71lkWK2-13" edge="1">
          <mxGeometry relative="1" as="geometry"/>
        </mxCell>
        <mxCell id="4v_ZqnaojmBZI71lkWK2-106" style="edgeStyle=orthogonalEdgeStyle;rounded=0;orthogonalLoop=1;jettySize=auto;html=1;exitX=0.5;exitY=1;exitDx=0;exitDy=0;exitPerimeter=0;entryX=0.5;entryY=0;entryDx=0;entryDy=0;strokeColor=#3333FF;fillColor=#FF0000;" parent="3Ijdbuu_0H5kMbtF8D1f-1" source="4v_ZqnaojmBZI71lkWK2-11" target="4v_ZqnaojmBZI71lkWK2-16" edge="1">
          <mxGeometry relative="1" as="geometry"/>
        </mxCell>
        <mxCell id="4v_ZqnaojmBZI71lkWK2-11" value="device가 online 상태로 &lt;br&gt;연결되었는가?" style="strokeWidth=2;html=1;shape=mxgraph.flowchart.decision;whiteSpace=wrap;fillColor=#fff2cc;strokeColor=#d6b656;" parent="3Ijdbuu_0H5kMbtF8D1f-1" vertex="1">
          <mxGeometry x="58.75" y="415" width="170" height="90" as="geometry"/>
        </mxCell>
        <mxCell id="4v_ZqnaojmBZI71lkWK2-12" style="edgeStyle=orthogonalEdgeStyle;rounded=0;orthogonalLoop=1;jettySize=auto;html=1;entryX=0.5;entryY=0;entryDx=0;entryDy=0;strokeColor=#000000;fontColor=#FF0000;" parent="3Ijdbuu_0H5kMbtF8D1f-1" source="4v_ZqnaojmBZI71lkWK2-13" target="4v_ZqnaojmBZI71lkWK2-20" edge="1">
          <mxGeometry relative="1" as="geometry"/>
        </mxCell>
        <mxCell id="4v_ZqnaojmBZI71lkWK2-13" value="&lt;span style=&quot;white-space: normal&quot;&gt;command 실행 정지&lt;/span&gt;&lt;br style=&quot;white-space: normal&quot;&gt;&lt;span style=&quot;white-space: normal&quot;&gt;( wait-for-device )&amp;nbsp;&lt;/span&gt;" style="rounded=1;whiteSpace=wrap;html=1;absoluteArcSize=1;arcSize=14;strokeWidth=2;fillColor=#f5f5f5;strokeColor=#666666;fontColor=#333333;" parent="3Ijdbuu_0H5kMbtF8D1f-1" vertex="1">
          <mxGeometry x="266.25" y="432.5" width="140" height="45" as="geometry"/>
        </mxCell>
        <mxCell id="4v_ZqnaojmBZI71lkWK2-14" value="No" style="text;html=1;strokeColor=none;fillColor=none;align=center;verticalAlign=middle;whiteSpace=wrap;rounded=0;fontColor=#FF0000;" parent="3Ijdbuu_0H5kMbtF8D1f-1" vertex="1">
          <mxGeometry x="226.25" y="432.5" width="40" height="20" as="geometry"/>
        </mxCell>
        <mxCell id="4v_ZqnaojmBZI71lkWK2-15" style="edgeStyle=orthogonalEdgeStyle;rounded=0;orthogonalLoop=1;jettySize=auto;html=1;entryX=0.487;entryY=0;entryDx=0;entryDy=0;entryPerimeter=0;strokeColor=#000000;" parent="3Ijdbuu_0H5kMbtF8D1f-1" source="4v_ZqnaojmBZI71lkWK2-16" edge="1">
          <mxGeometry relative="1" as="geometry">
            <mxPoint x="146.21499999999992" y="590" as="targetPoint"/>
          </mxGeometry>
        </mxCell>
        <mxCell id="4v_ZqnaojmBZI71lkWK2-16" value="연결된 단말 리스트 정보 출력&lt;br&gt;( devices -l )" style="rounded=1;whiteSpace=wrap;html=1;absoluteArcSize=1;arcSize=14;strokeWidth=2;fontColor=#333333;fillColor=#f5f5f5;strokeColor=#666666;" parent="3Ijdbuu_0H5kMbtF8D1f-1" vertex="1">
          <mxGeometry x="61.25" y="520" width="170" height="40" as="geometry"/>
        </mxCell>
        <mxCell id="4v_ZqnaojmBZI71lkWK2-17" value="&lt;font color=&quot;#0000cc&quot;&gt;Yes&lt;/font&gt;" style="text;html=1;strokeColor=none;fillColor=none;align=center;verticalAlign=middle;whiteSpace=wrap;rounded=0;fontColor=#FF0000;" parent="3Ijdbuu_0H5kMbtF8D1f-1" vertex="1">
          <mxGeometry x="149.25" y="498" width="40" height="20" as="geometry"/>
        </mxCell>
        <mxCell id="4v_ZqnaojmBZI71lkWK2-18" style="edgeStyle=orthogonalEdgeStyle;rounded=0;orthogonalLoop=1;jettySize=auto;html=1;entryX=1;entryY=0.5;entryDx=0;entryDy=0;strokeColor=#0000CC;fontColor=#FF0000;" parent="3Ijdbuu_0H5kMbtF8D1f-1" source="4v_ZqnaojmBZI71lkWK2-20" target="4v_ZqnaojmBZI71lkWK2-16" edge="1">
          <mxGeometry relative="1" as="geometry"/>
        </mxCell>
        <mxCell id="4v_ZqnaojmBZI71lkWK2-19" style="edgeStyle=orthogonalEdgeStyle;rounded=0;orthogonalLoop=1;jettySize=auto;html=1;exitX=1;exitY=0.5;exitDx=0;exitDy=0;entryX=1;entryY=0.5;entryDx=0;entryDy=0;strokeColor=#FF0000;fontColor=#FF0000;" parent="3Ijdbuu_0H5kMbtF8D1f-1" source="4v_ZqnaojmBZI71lkWK2-20" target="4v_ZqnaojmBZI71lkWK2-13" edge="1">
          <mxGeometry relative="1" as="geometry"/>
        </mxCell>
        <mxCell id="4v_ZqnaojmBZI71lkWK2-20" value="&lt;font color=&quot;#000000&quot;&gt;device가 다시 &lt;br&gt;연결되었는가?&lt;/font&gt;" style="rhombus;whiteSpace=wrap;html=1;fillColor=#fff2cc;strokeColor=#d6b656;" parent="3Ijdbuu_0H5kMbtF8D1f-1" vertex="1">
          <mxGeometry x="261.25" y="505" width="150" height="70" as="geometry"/>
        </mxCell>
        <mxCell id="4v_ZqnaojmBZI71lkWK2-21" value="&lt;font color=&quot;#0000cc&quot;&gt;Yes&lt;/font&gt;" style="text;html=1;strokeColor=none;fillColor=none;align=center;verticalAlign=middle;whiteSpace=wrap;rounded=0;fontColor=#FF0000;" parent="3Ijdbuu_0H5kMbtF8D1f-1" vertex="1">
          <mxGeometry x="226.25" y="518" width="40" height="20" as="geometry"/>
        </mxCell>
        <mxCell id="4v_ZqnaojmBZI71lkWK2-22" style="edgeStyle=orthogonalEdgeStyle;rounded=0;orthogonalLoop=1;jettySize=auto;html=1;entryX=0.5;entryY=0;entryDx=0;entryDy=0;entryPerimeter=0;strokeColor=#000000;fontColor=#000000;" parent="3Ijdbuu_0H5kMbtF8D1f-1" target="4v_ZqnaojmBZI71lkWK2-11" edge="1">
          <mxGeometry relative="1" as="geometry">
            <mxPoint x="146.25" y="390" as="sourcePoint"/>
          </mxGeometry>
        </mxCell>
        <mxCell id="4v_ZqnaojmBZI71lkWK2-23" style="edgeStyle=orthogonalEdgeStyle;rounded=0;orthogonalLoop=1;jettySize=auto;html=1;entryX=0.5;entryY=0;entryDx=0;entryDy=0;strokeColor=#000000;fontColor=#000000;" parent="3Ijdbuu_0H5kMbtF8D1f-1" target="4v_ZqnaojmBZI71lkWK2-24" edge="1">
          <mxGeometry relative="1" as="geometry">
            <mxPoint x="147.5" y="627.5" as="sourcePoint"/>
          </mxGeometry>
        </mxCell>
        <mxCell id="4v_ZqnaojmBZI71lkWK2-79" value="" style="edgeStyle=orthogonalEdgeStyle;rounded=0;orthogonalLoop=1;jettySize=auto;html=1;" parent="3Ijdbuu_0H5kMbtF8D1f-1" source="4v_ZqnaojmBZI71lkWK2-24" target="4v_ZqnaojmBZI71lkWK2-76" edge="1">
          <mxGeometry relative="1" as="geometry"/>
        </mxCell>
        <mxCell id="4v_ZqnaojmBZI71lkWK2-81" value="" style="edgeStyle=orthogonalEdgeStyle;rounded=0;orthogonalLoop=1;jettySize=auto;html=1;" parent="3Ijdbuu_0H5kMbtF8D1f-1" source="4v_ZqnaojmBZI71lkWK2-24" target="4v_ZqnaojmBZI71lkWK2-76" edge="1">
          <mxGeometry relative="1" as="geometry"/>
        </mxCell>
        <mxCell id="4v_ZqnaojmBZI71lkWK2-24" value="adb server에&lt;br&gt;TCP/IP port 5555 설정" style="rounded=1;whiteSpace=wrap;html=1;absoluteArcSize=1;arcSize=14;strokeWidth=2;fontColor=#333333;fillColor=#f5f5f5;strokeColor=#666666;" parent="3Ijdbuu_0H5kMbtF8D1f-1" vertex="1">
          <mxGeometry x="65" y="658" width="150" height="60" as="geometry"/>
        </mxCell>
        <mxCell id="4v_ZqnaojmBZI71lkWK2-80" value="" style="edgeStyle=orthogonalEdgeStyle;rounded=0;orthogonalLoop=1;jettySize=auto;html=1;" parent="3Ijdbuu_0H5kMbtF8D1f-1" source="4v_ZqnaojmBZI71lkWK2-25" target="4v_ZqnaojmBZI71lkWK2-24" edge="1">
          <mxGeometry relative="1" as="geometry"/>
        </mxCell>
        <mxCell id="4v_ZqnaojmBZI71lkWK2-25" value="adb tcpip 5555" style="shape=parallelogram;html=1;strokeWidth=2;perimeter=parallelogramPerimeter;whiteSpace=wrap;rounded=1;arcSize=12;size=0.23;fillColor=#d5e8d4;strokeColor=#82b366;" parent="3Ijdbuu_0H5kMbtF8D1f-1" vertex="1">
          <mxGeometry x="57.5" y="590" width="165" height="37.5" as="geometry"/>
        </mxCell>
        <mxCell id="4v_ZqnaojmBZI71lkWK2-26" value="4개의 디바이스를 무선으로 연결" style="swimlane;html=1;startSize=20;horizontal=1;containerType=tree;fontColor=#000000;align=right;" parent="3Ijdbuu_0H5kMbtF8D1f-1" vertex="1">
          <mxGeometry x="20" y="738" width="380" height="302" as="geometry">
            <mxRectangle x="39.99999999999996" y="738" width="120" height="20" as="alternateBounds"/>
          </mxGeometry>
        </mxCell>
        <mxCell id="4v_ZqnaojmBZI71lkWK2-78" value="" style="edgeStyle=orthogonalEdgeStyle;rounded=0;orthogonalLoop=1;jettySize=auto;html=1;" parent="4v_ZqnaojmBZI71lkWK2-26" source="4v_ZqnaojmBZI71lkWK2-76" target="4v_ZqnaojmBZI71lkWK2-77" edge="1">
          <mxGeometry relative="1" as="geometry"/>
        </mxCell>
        <mxCell id="4v_ZqnaojmBZI71lkWK2-76" value="for 문 i=5 부터 시작&lt;br&gt;ip 192.168.1.5로 초기 설정" style="rounded=1;whiteSpace=wrap;html=1;absoluteArcSize=1;arcSize=14;strokeWidth=2;fontColor=#333333;fillColor=#f5f5f5;strokeColor=#666666;" parent="4v_ZqnaojmBZI71lkWK2-26" vertex="1">
          <mxGeometry x="45.00000000000004" y="32" width="150" height="40" as="geometry"/>
        </mxCell>
        <mxCell id="4v_ZqnaojmBZI71lkWK2-103" style="edgeStyle=orthogonalEdgeStyle;rounded=0;orthogonalLoop=1;jettySize=auto;html=1;entryX=0.5;entryY=0;entryDx=0;entryDy=0;entryPerimeter=0;" parent="4v_ZqnaojmBZI71lkWK2-26" source="4v_ZqnaojmBZI71lkWK2-77" target="4v_ZqnaojmBZI71lkWK2-97" edge="1">
          <mxGeometry relative="1" as="geometry"/>
        </mxCell>
        <mxCell id="4v_ZqnaojmBZI71lkWK2-77" value="각 IP 별로 TCP/IP Port 5555에 연결" style="rounded=1;whiteSpace=wrap;html=1;absoluteArcSize=1;arcSize=14;strokeWidth=2;fontColor=#333333;fillColor=#f5f5f5;strokeColor=#666666;" parent="4v_ZqnaojmBZI71lkWK2-26" vertex="1">
          <mxGeometry x="15.630000000000038" y="112" width="208.75" height="50" as="geometry"/>
        </mxCell>
        <mxCell id="4v_ZqnaojmBZI71lkWK2-97" value="i가 8이상인가?" style="strokeWidth=2;html=1;shape=mxgraph.flowchart.decision;whiteSpace=wrap;fillColor=#fff2cc;strokeColor=#d6b656;" parent="4v_ZqnaojmBZI71lkWK2-26" vertex="1">
          <mxGeometry x="20" y="212" width="200" height="70" as="geometry"/>
        </mxCell>
        <mxCell id="4v_ZqnaojmBZI71lkWK2-110" style="edgeStyle=orthogonalEdgeStyle;rounded=0;orthogonalLoop=1;jettySize=auto;html=1;strokeColor=#000000;fillColor=#FF0000;entryX=1;entryY=0.5;entryDx=0;entryDy=0;" parent="4v_ZqnaojmBZI71lkWK2-26" source="4v_ZqnaojmBZI71lkWK2-109" target="4v_ZqnaojmBZI71lkWK2-76" edge="1">
          <mxGeometry relative="1" as="geometry">
            <mxPoint x="230" y="42" as="targetPoint"/>
            <Array as="points">
              <mxPoint x="370" y="247"/>
              <mxPoint x="370" y="52"/>
            </Array>
          </mxGeometry>
        </mxCell>
        <mxCell id="4v_ZqnaojmBZI71lkWK2-109" value="i+1" style="rounded=1;whiteSpace=wrap;html=1;absoluteArcSize=1;arcSize=14;strokeWidth=2;fontColor=#333333;fillColor=#f5f5f5;strokeColor=#666666;" parent="4v_ZqnaojmBZI71lkWK2-26" vertex="1">
          <mxGeometry x="260" y="227" width="75" height="40" as="geometry"/>
        </mxCell>
        <mxCell id="4v_ZqnaojmBZI71lkWK2-105" style="edgeStyle=orthogonalEdgeStyle;rounded=0;orthogonalLoop=1;jettySize=auto;html=1;strokeColor=#3333FF;" parent="3Ijdbuu_0H5kMbtF8D1f-1" source="4v_ZqnaojmBZI71lkWK2-97" edge="1">
          <mxGeometry relative="1" as="geometry">
            <mxPoint x="140" y="1070" as="targetPoint"/>
          </mxGeometry>
        </mxCell>
        <mxCell id="4v_ZqnaojmBZI71lkWK2-108" style="edgeStyle=orthogonalEdgeStyle;rounded=0;orthogonalLoop=1;jettySize=auto;html=1;strokeColor=#FF0000;fillColor=#FF0000;" parent="3Ijdbuu_0H5kMbtF8D1f-1" source="4v_ZqnaojmBZI71lkWK2-97" edge="1">
          <mxGeometry relative="1" as="geometry">
            <mxPoint x="280" y="985" as="targetPoint"/>
          </mxGeometry>
        </mxCell>
        <mxCell id="4v_ZqnaojmBZI71lkWK2-113" style="edgeStyle=orthogonalEdgeStyle;rounded=0;orthogonalLoop=1;jettySize=auto;html=1;strokeColor=#000000;fillColor=#FF0000;" parent="3Ijdbuu_0H5kMbtF8D1f-1" source="4v_ZqnaojmBZI71lkWK2-111" target="4v_ZqnaojmBZI71lkWK2-112" edge="1">
          <mxGeometry relative="1" as="geometry"/>
        </mxCell>
        <mxCell id="4v_ZqnaojmBZI71lkWK2-111" value="메뉴로 이동&lt;br&gt;(cls / 커멘드 라인 지움)" style="rounded=1;whiteSpace=wrap;html=1;absoluteArcSize=1;arcSize=14;strokeWidth=2;fontColor=#333333;fillColor=#f5f5f5;strokeColor=#666666;" parent="3Ijdbuu_0H5kMbtF8D1f-1" vertex="1">
          <mxGeometry x="65" y="1070" width="150" height="60" as="geometry"/>
        </mxCell>
        <mxCell id="4v_ZqnaojmBZI71lkWK2-167" style="edgeStyle=orthogonalEdgeStyle;rounded=0;orthogonalLoop=1;jettySize=auto;html=1;entryX=0.5;entryY=0;entryDx=0;entryDy=0;strokeColor=#000000;fillColor=#FF0000;" parent="3Ijdbuu_0H5kMbtF8D1f-1" source="4v_ZqnaojmBZI71lkWK2-112" target="4v_ZqnaojmBZI71lkWK2-148" edge="1">
          <mxGeometry relative="1" as="geometry"/>
        </mxCell>
        <mxCell id="4v_ZqnaojmBZI71lkWK2-112" value="연결된 단말 리스트 정보 출력&lt;br&gt;( devices -l )" style="rounded=1;whiteSpace=wrap;html=1;absoluteArcSize=1;arcSize=14;strokeWidth=2;fontColor=#333333;fillColor=#f5f5f5;strokeColor=#666666;" parent="3Ijdbuu_0H5kMbtF8D1f-1" vertex="1">
          <mxGeometry x="55" y="1180" width="170" height="40" as="geometry"/>
        </mxCell>
        <mxCell id="4v_ZqnaojmBZI71lkWK2-139" style="edgeStyle=orthogonalEdgeStyle;rounded=0;orthogonalLoop=1;jettySize=auto;html=1;entryX=0.5;entryY=0;entryDx=0;entryDy=0;entryPerimeter=0;strokeColor=#000000;fontColor=#000000;" parent="3Ijdbuu_0H5kMbtF8D1f-1" target="4v_ZqnaojmBZI71lkWK2-141" edge="1">
          <mxGeometry relative="1" as="geometry">
            <mxPoint x="136.25" y="1529.9999999999998" as="sourcePoint"/>
          </mxGeometry>
        </mxCell>
        <mxCell id="4v_ZqnaojmBZI71lkWK2-140" style="edgeStyle=orthogonalEdgeStyle;rounded=0;orthogonalLoop=1;jettySize=auto;html=1;entryX=0.5;entryY=0;entryDx=0;entryDy=0;entryPerimeter=0;strokeColor=#FF0000;fontColor=#000000;" parent="3Ijdbuu_0H5kMbtF8D1f-1" source="4v_ZqnaojmBZI71lkWK2-141" target="4v_ZqnaojmBZI71lkWK2-144" edge="1">
          <mxGeometry relative="1" as="geometry"/>
        </mxCell>
        <mxCell id="4v_ZqnaojmBZI71lkWK2-141" value="0번을 입력했는가?" style="strokeWidth=2;html=1;shape=mxgraph.flowchart.decision;whiteSpace=wrap;fillColor=#fff2cc;strokeColor=#d6b656;" parent="3Ijdbuu_0H5kMbtF8D1f-1" vertex="1">
          <mxGeometry x="51.25" y="1550" width="170" height="70" as="geometry"/>
        </mxCell>
        <mxCell id="4v_ZqnaojmBZI71lkWK2-142" value="&lt;font color=&quot;#0000cc&quot;&gt;Yes&lt;/font&gt;" style="text;html=1;strokeColor=none;fillColor=none;align=center;verticalAlign=middle;whiteSpace=wrap;rounded=0;fontColor=#FF0000;" parent="3Ijdbuu_0H5kMbtF8D1f-1" vertex="1">
          <mxGeometry x="222.75" y="1560" width="40" height="20" as="geometry"/>
        </mxCell>
        <mxCell id="4v_ZqnaojmBZI71lkWK2-143" style="edgeStyle=orthogonalEdgeStyle;rounded=0;orthogonalLoop=1;jettySize=auto;html=1;entryX=0.5;entryY=0;entryDx=0;entryDy=0;entryPerimeter=0;strokeColor=#FF0000;fontColor=#000000;" parent="3Ijdbuu_0H5kMbtF8D1f-1" source="4v_ZqnaojmBZI71lkWK2-144" target="4v_ZqnaojmBZI71lkWK2-150" edge="1">
          <mxGeometry relative="1" as="geometry"/>
        </mxCell>
        <mxCell id="4v_ZqnaojmBZI71lkWK2-144" value="1번을 입력했는가?" style="strokeWidth=2;html=1;shape=mxgraph.flowchart.decision;whiteSpace=wrap;fillColor=#fff2cc;strokeColor=#d6b656;" parent="3Ijdbuu_0H5kMbtF8D1f-1" vertex="1">
          <mxGeometry x="51.25" y="1650" width="170" height="70" as="geometry"/>
        </mxCell>
        <mxCell id="4v_ZqnaojmBZI71lkWK2-145" value="No" style="text;html=1;strokeColor=none;fillColor=none;align=center;verticalAlign=middle;whiteSpace=wrap;rounded=0;fontColor=#FF0000;" parent="3Ijdbuu_0H5kMbtF8D1f-1" vertex="1">
          <mxGeometry x="139.25" y="1620" width="40" height="20" as="geometry"/>
        </mxCell>
        <mxCell id="4v_ZqnaojmBZI71lkWK2-146" value="READ&lt;br&gt;메뉴 번호(menus)" style="shape=parallelogram;html=1;strokeWidth=2;perimeter=parallelogramPerimeter;whiteSpace=wrap;rounded=1;arcSize=12;size=0.23;fillColor=#f8cecc;strokeColor=#b85450;" parent="3Ijdbuu_0H5kMbtF8D1f-1" vertex="1">
          <mxGeometry x="46.25" y="1470" width="180" height="60" as="geometry"/>
        </mxCell>
        <mxCell id="4v_ZqnaojmBZI71lkWK2-147" style="edgeStyle=orthogonalEdgeStyle;rounded=0;orthogonalLoop=1;jettySize=auto;html=1;strokeColor=#000000;fontColor=#000000;" parent="3Ijdbuu_0H5kMbtF8D1f-1" target="4v_ZqnaojmBZI71lkWK2-153" edge="1">
          <mxGeometry relative="1" as="geometry">
            <mxPoint x="136.75" y="1359.9999999999998" as="sourcePoint"/>
            <Array as="points">
              <mxPoint x="136.75" y="1380"/>
              <mxPoint x="136.75" y="1380"/>
            </Array>
          </mxGeometry>
        </mxCell>
        <mxCell id="4v_ZqnaojmBZI71lkWK2-148" value="&lt;span style=&quot;white-space: normal&quot;&gt;WRITE&lt;br&gt;Step.2 메뉴 출력&lt;/span&gt;&lt;br style=&quot;white-space: normal&quot;&gt;&lt;span style=&quot;white-space: normal&quot;&gt;0.ADB 서버 재실행&lt;/span&gt;&lt;br style=&quot;white-space: normal&quot;&gt;&lt;span style=&quot;white-space: normal&quot;&gt;1. APK 설치&lt;/span&gt;&lt;br style=&quot;white-space: normal&quot;&gt;&lt;span style=&quot;white-space: normal&quot;&gt;2. APK 실행&lt;/span&gt;&lt;br style=&quot;white-space: normal&quot;&gt;&lt;span style=&quot;white-space: normal&quot;&gt;3. OS 및 API 레벨 조회&lt;/span&gt;&lt;br style=&quot;white-space: normal&quot;&gt;&lt;span style=&quot;white-space: normal&quot;&gt;4. 툴 종료&lt;/span&gt;" style="shape=parallelogram;html=1;strokeWidth=2;perimeter=parallelogramPerimeter;whiteSpace=wrap;rounded=1;arcSize=12;size=0.23;fillColor=#d5e8d4;strokeColor=#82b366;" parent="3Ijdbuu_0H5kMbtF8D1f-1" vertex="1">
          <mxGeometry x="43.25" y="1260" width="195" height="100" as="geometry"/>
        </mxCell>
        <mxCell id="4v_ZqnaojmBZI71lkWK2-149" style="edgeStyle=orthogonalEdgeStyle;rounded=0;orthogonalLoop=1;jettySize=auto;html=1;entryX=0.5;entryY=0;entryDx=0;entryDy=0;entryPerimeter=0;strokeColor=#FF0000;fontColor=#000000;" parent="3Ijdbuu_0H5kMbtF8D1f-1" source="4v_ZqnaojmBZI71lkWK2-150" target="4v_ZqnaojmBZI71lkWK2-155" edge="1">
          <mxGeometry relative="1" as="geometry"/>
        </mxCell>
        <mxCell id="4v_ZqnaojmBZI71lkWK2-150" value="2번을 입력했는가?" style="strokeWidth=2;html=1;shape=mxgraph.flowchart.decision;whiteSpace=wrap;fillColor=#fff2cc;strokeColor=#d6b656;" parent="3Ijdbuu_0H5kMbtF8D1f-1" vertex="1">
          <mxGeometry x="51.25" y="1750" width="170" height="70" as="geometry"/>
        </mxCell>
        <mxCell id="4v_ZqnaojmBZI71lkWK2-151" value="No" style="text;html=1;strokeColor=none;fillColor=none;align=center;verticalAlign=middle;whiteSpace=wrap;rounded=0;fontColor=#FF0000;" parent="3Ijdbuu_0H5kMbtF8D1f-1" vertex="1">
          <mxGeometry x="146.25" y="1720" width="40" height="20" as="geometry"/>
        </mxCell>
        <mxCell id="4v_ZqnaojmBZI71lkWK2-152" style="edgeStyle=orthogonalEdgeStyle;rounded=0;orthogonalLoop=1;jettySize=auto;html=1;entryX=0.5;entryY=0;entryDx=0;entryDy=0;strokeColor=#000000;" parent="3Ijdbuu_0H5kMbtF8D1f-1" source="4v_ZqnaojmBZI71lkWK2-153" target="4v_ZqnaojmBZI71lkWK2-146" edge="1">
          <mxGeometry relative="1" as="geometry"/>
        </mxCell>
        <mxCell id="4v_ZqnaojmBZI71lkWK2-153" value="me 변수 선언&lt;br&gt;me=menus" style="verticalLabelPosition=middle;verticalAlign=middle;html=1;shape=hexagon;perimeter=hexagonPerimeter2;arcSize=6;size=0.27;labelPosition=center;align=center;fillColor=#e1d5e7;strokeColor=#9673a6;" parent="3Ijdbuu_0H5kMbtF8D1f-1" vertex="1">
          <mxGeometry x="71.75" y="1400" width="130" height="41.25" as="geometry"/>
        </mxCell>
        <mxCell id="4v_ZqnaojmBZI71lkWK2-154" style="edgeStyle=orthogonalEdgeStyle;rounded=0;orthogonalLoop=1;jettySize=auto;html=1;entryX=0.5;entryY=0;entryDx=0;entryDy=0;entryPerimeter=0;strokeColor=#FF0000;" parent="3Ijdbuu_0H5kMbtF8D1f-1" source="4v_ZqnaojmBZI71lkWK2-155" target="4v_ZqnaojmBZI71lkWK2-159" edge="1">
          <mxGeometry relative="1" as="geometry"/>
        </mxCell>
        <mxCell id="4v_ZqnaojmBZI71lkWK2-155" value="3번을 입력했는가?" style="strokeWidth=2;html=1;shape=mxgraph.flowchart.decision;whiteSpace=wrap;fillColor=#fff2cc;strokeColor=#d6b656;" parent="3Ijdbuu_0H5kMbtF8D1f-1" vertex="1">
          <mxGeometry x="51.25" y="1850" width="170" height="70" as="geometry"/>
        </mxCell>
        <mxCell id="4v_ZqnaojmBZI71lkWK2-156" value="No" style="text;html=1;strokeColor=none;fillColor=none;align=center;verticalAlign=middle;whiteSpace=wrap;rounded=0;fontColor=#FF0000;" parent="3Ijdbuu_0H5kMbtF8D1f-1" vertex="1">
          <mxGeometry x="153.25" y="1820" width="40" height="20" as="geometry"/>
        </mxCell>
        <mxCell id="4v_ZqnaojmBZI71lkWK2-157" value="&lt;font color=&quot;#0000cc&quot;&gt;Yes&lt;/font&gt;" style="text;html=1;strokeColor=none;fillColor=none;align=center;verticalAlign=middle;whiteSpace=wrap;rounded=0;fontColor=#FF0000;" parent="3Ijdbuu_0H5kMbtF8D1f-1" vertex="1">
          <mxGeometry x="226.25" y="1860" width="40" height="20" as="geometry"/>
        </mxCell>
        <mxCell id="4v_ZqnaojmBZI71lkWK2-158" style="edgeStyle=orthogonalEdgeStyle;rounded=0;orthogonalLoop=1;jettySize=auto;html=1;entryX=0.5;entryY=0;entryDx=0;entryDy=0;strokeColor=#0000CC;" parent="3Ijdbuu_0H5kMbtF8D1f-1" source="4v_ZqnaojmBZI71lkWK2-159" target="4v_ZqnaojmBZI71lkWK2-162" edge="1">
          <mxGeometry relative="1" as="geometry"/>
        </mxCell>
        <mxCell id="4v_ZqnaojmBZI71lkWK2-159" value="4번을 입력했는가?" style="strokeWidth=2;html=1;shape=mxgraph.flowchart.decision;whiteSpace=wrap;fillColor=#fff2cc;strokeColor=#d6b656;" parent="3Ijdbuu_0H5kMbtF8D1f-1" vertex="1">
          <mxGeometry x="51.25" y="1951.25" width="170" height="70" as="geometry"/>
        </mxCell>
        <mxCell id="4v_ZqnaojmBZI71lkWK2-160" value="No" style="text;html=1;strokeColor=none;fillColor=none;align=center;verticalAlign=middle;whiteSpace=wrap;rounded=0;fontColor=#FF0000;" parent="3Ijdbuu_0H5kMbtF8D1f-1" vertex="1">
          <mxGeometry x="145.75" y="1930" width="40" height="20" as="geometry"/>
        </mxCell>
        <mxCell id="4v_ZqnaojmBZI71lkWK2-161" style="edgeStyle=orthogonalEdgeStyle;rounded=0;orthogonalLoop=1;jettySize=auto;html=1;entryX=0.5;entryY=0;entryDx=0;entryDy=0;strokeColor=#000000;" parent="3Ijdbuu_0H5kMbtF8D1f-1" source="4v_ZqnaojmBZI71lkWK2-162" target="4v_ZqnaojmBZI71lkWK2-165" edge="1">
          <mxGeometry relative="1" as="geometry"/>
        </mxCell>
        <mxCell id="4v_ZqnaojmBZI71lkWK2-162" value="END 메뉴로 이동" style="rounded=1;whiteSpace=wrap;html=1;absoluteArcSize=1;arcSize=14;strokeWidth=2;fontColor=#333333;fillColor=#f5f5f5;strokeColor=#666666;" parent="3Ijdbuu_0H5kMbtF8D1f-1" vertex="1">
          <mxGeometry x="61.25" y="2064.25" width="150" height="50" as="geometry"/>
        </mxCell>
        <mxCell id="4v_ZqnaojmBZI71lkWK2-163" value="&lt;font color=&quot;#0000cc&quot;&gt;Yes&lt;/font&gt;" style="text;html=1;strokeColor=none;fillColor=none;align=center;verticalAlign=middle;whiteSpace=wrap;rounded=0;fontColor=#FF0000;" parent="3Ijdbuu_0H5kMbtF8D1f-1" vertex="1">
          <mxGeometry x="140.75" y="2030.25" width="40" height="20" as="geometry"/>
        </mxCell>
        <mxCell id="4v_ZqnaojmBZI71lkWK2-164" style="edgeStyle=orthogonalEdgeStyle;rounded=0;orthogonalLoop=1;jettySize=auto;html=1;entryX=0.5;entryY=0;entryDx=0;entryDy=0;entryPerimeter=0;strokeColor=#000000;" parent="3Ijdbuu_0H5kMbtF8D1f-1" source="4v_ZqnaojmBZI71lkWK2-165" target="4v_ZqnaojmBZI71lkWK2-166" edge="1">
          <mxGeometry relative="1" as="geometry"/>
        </mxCell>
        <mxCell id="4v_ZqnaojmBZI71lkWK2-165" value="종료 안내 출력" style="shape=parallelogram;html=1;strokeWidth=2;perimeter=parallelogramPerimeter;whiteSpace=wrap;rounded=1;arcSize=12;size=0.23;fillColor=#d5e8d4;strokeColor=#82b366;" parent="3Ijdbuu_0H5kMbtF8D1f-1" vertex="1">
          <mxGeometry x="56.25" y="2166" width="160" height="64" as="geometry"/>
        </mxCell>
        <mxCell id="4v_ZqnaojmBZI71lkWK2-166" value="클릭 시 종료" style="strokeWidth=2;html=1;shape=mxgraph.flowchart.terminator;whiteSpace=wrap;fillColor=#dae8fc;strokeColor=#6c8ebf;" parent="3Ijdbuu_0H5kMbtF8D1f-1" vertex="1">
          <mxGeometry x="76.25" y="2280" width="120" height="40" as="geometry"/>
        </mxCell>
        <mxCell id="4v_ZqnaojmBZI71lkWK2-177" style="edgeStyle=orthogonalEdgeStyle;rounded=0;orthogonalLoop=1;jettySize=auto;html=1;entryX=0;entryY=0.5;entryDx=0;entryDy=0;strokeColor=#0000CC;fontColor=#000000;" parent="3Ijdbuu_0H5kMbtF8D1f-1" target="4v_ZqnaojmBZI71lkWK2-179" edge="1">
          <mxGeometry relative="1" as="geometry">
            <Array as="points">
              <mxPoint x="504.45000000000005" y="1585"/>
              <mxPoint x="504.45000000000005" y="1021"/>
            </Array>
            <mxPoint x="217.45" y="1585" as="sourcePoint"/>
          </mxGeometry>
        </mxCell>
        <mxCell id="4v_ZqnaojmBZI71lkWK2-178" style="edgeStyle=orthogonalEdgeStyle;rounded=0;orthogonalLoop=1;jettySize=auto;html=1;entryX=0.5;entryY=0;entryDx=0;entryDy=0;entryPerimeter=0;strokeColor=#000000;fontColor=#000000;" parent="3Ijdbuu_0H5kMbtF8D1f-1" source="4v_ZqnaojmBZI71lkWK2-179" edge="1">
          <mxGeometry relative="1" as="geometry">
            <mxPoint x="649.45" y="1080" as="targetPoint"/>
          </mxGeometry>
        </mxCell>
        <mxCell id="4v_ZqnaojmBZI71lkWK2-179" value="REBOOT 메뉴로 이동" style="rounded=1;whiteSpace=wrap;html=1;absoluteArcSize=1;arcSize=14;strokeWidth=2;fontColor=#333333;fillColor=#f5f5f5;strokeColor=#666666;" parent="3Ijdbuu_0H5kMbtF8D1f-1" vertex="1">
          <mxGeometry x="574.45" y="996" width="150" height="50" as="geometry"/>
        </mxCell>
        <mxCell id="4v_ZqnaojmBZI71lkWK2-180" value="&lt;font color=&quot;#0000cc&quot;&gt;Yes&lt;/font&gt;" style="text;html=1;strokeColor=none;fillColor=none;align=center;verticalAlign=middle;whiteSpace=wrap;rounded=0;fontColor=#FF0000;" parent="3Ijdbuu_0H5kMbtF8D1f-1" vertex="1">
          <mxGeometry x="218.95" y="1560" width="40" height="20" as="geometry"/>
        </mxCell>
        <mxCell id="4v_ZqnaojmBZI71lkWK2-181" style="edgeStyle=orthogonalEdgeStyle;rounded=0;orthogonalLoop=1;jettySize=auto;html=1;entryX=0.5;entryY=0;entryDx=0;entryDy=0;strokeColor=#000000;fontColor=#000000;" parent="3Ijdbuu_0H5kMbtF8D1f-1" target="4v_ZqnaojmBZI71lkWK2-182" edge="1">
          <mxGeometry relative="1" as="geometry">
            <mxPoint x="649.45" y="1117.5" as="sourcePoint"/>
          </mxGeometry>
        </mxCell>
        <mxCell id="4v_ZqnaojmBZI71lkWK2-182" value="ADB Server를 내림&lt;br&gt;(kill-server)" style="rounded=1;whiteSpace=wrap;html=1;absoluteArcSize=1;arcSize=14;strokeWidth=2;fontColor=#333333;fillColor=#f5f5f5;strokeColor=#666666;" parent="3Ijdbuu_0H5kMbtF8D1f-1" vertex="1">
          <mxGeometry x="574.45" y="1148" width="150" height="60" as="geometry"/>
        </mxCell>
        <mxCell id="4v_ZqnaojmBZI71lkWK2-183" style="edgeStyle=orthogonalEdgeStyle;rounded=0;orthogonalLoop=1;jettySize=auto;html=1;entryX=0.5;entryY=0;entryDx=0;entryDy=0;entryPerimeter=0;strokeColor=#000000;fontColor=#000000;" parent="3Ijdbuu_0H5kMbtF8D1f-1" edge="1">
          <mxGeometry relative="1" as="geometry">
            <mxPoint x="649.45" y="1208" as="sourcePoint"/>
            <mxPoint x="649.45" y="1242" as="targetPoint"/>
          </mxGeometry>
        </mxCell>
        <mxCell id="4v_ZqnaojmBZI71lkWK2-184" style="edgeStyle=orthogonalEdgeStyle;rounded=0;orthogonalLoop=1;jettySize=auto;html=1;entryX=0.5;entryY=0;entryDx=0;entryDy=0;strokeColor=#000000;fontColor=#000000;" parent="3Ijdbuu_0H5kMbtF8D1f-1" target="4v_ZqnaojmBZI71lkWK2-186" edge="1">
          <mxGeometry relative="1" as="geometry">
            <mxPoint x="649.45" y="1279.4999999999995" as="sourcePoint"/>
          </mxGeometry>
        </mxCell>
        <mxCell id="4v_ZqnaojmBZI71lkWK2-185" style="edgeStyle=orthogonalEdgeStyle;rounded=0;orthogonalLoop=1;jettySize=auto;html=1;entryX=0.5;entryY=0;entryDx=0;entryDy=0;strokeColor=#000000;fontColor=#000000;" parent="3Ijdbuu_0H5kMbtF8D1f-1" source="4v_ZqnaojmBZI71lkWK2-186" target="4v_ZqnaojmBZI71lkWK2-188" edge="1">
          <mxGeometry relative="1" as="geometry"/>
        </mxCell>
        <mxCell id="4v_ZqnaojmBZI71lkWK2-186" value="ADB Server를 시작&lt;br&gt;(start-server)" style="rounded=1;whiteSpace=wrap;html=1;absoluteArcSize=1;arcSize=14;strokeWidth=2;fontColor=#333333;fillColor=#f5f5f5;strokeColor=#666666;" parent="3Ijdbuu_0H5kMbtF8D1f-1" vertex="1">
          <mxGeometry x="574.45" y="1310" width="150" height="60" as="geometry"/>
        </mxCell>
        <mxCell id="4v_ZqnaojmBZI71lkWK2-187" style="edgeStyle=orthogonalEdgeStyle;rounded=0;orthogonalLoop=1;jettySize=auto;html=1;entryX=1;entryY=0.5;entryDx=0;entryDy=0;strokeColor=#000000;fontColor=#000000;" parent="3Ijdbuu_0H5kMbtF8D1f-1" source="4v_ZqnaojmBZI71lkWK2-188" edge="1">
          <mxGeometry relative="1" as="geometry">
            <Array as="points">
              <mxPoint x="649.45" y="1500"/>
            </Array>
            <mxPoint x="201.75000000000017" y="1500" as="targetPoint"/>
          </mxGeometry>
        </mxCell>
        <mxCell id="4v_ZqnaojmBZI71lkWK2-188" value="메뉴로 이동&lt;br&gt;(cls / 커멘드 라인 지움)" style="rounded=1;whiteSpace=wrap;html=1;absoluteArcSize=1;arcSize=14;strokeWidth=2;fontColor=#333333;fillColor=#f5f5f5;strokeColor=#666666;" parent="3Ijdbuu_0H5kMbtF8D1f-1" vertex="1">
          <mxGeometry x="574.45" y="1400" width="150" height="60" as="geometry"/>
        </mxCell>
        <mxCell id="4v_ZqnaojmBZI71lkWK2-189" style="edgeStyle=orthogonalEdgeStyle;rounded=0;orthogonalLoop=1;jettySize=auto;html=1;entryX=0;entryY=0.5;entryDx=0;entryDy=0;strokeColor=#0000CC;fontColor=#000000;exitX=1;exitY=0.5;exitDx=0;exitDy=0;exitPerimeter=0;" parent="3Ijdbuu_0H5kMbtF8D1f-1" target="4v_ZqnaojmBZI71lkWK2-191" edge="1">
          <mxGeometry relative="1" as="geometry">
            <Array as="points">
              <mxPoint x="814.45" y="1685"/>
              <mxPoint x="814.45" y="1021"/>
            </Array>
            <mxPoint x="217.45" y="1685" as="sourcePoint"/>
          </mxGeometry>
        </mxCell>
        <mxCell id="4v_ZqnaojmBZI71lkWK2-190" style="edgeStyle=orthogonalEdgeStyle;rounded=0;orthogonalLoop=1;jettySize=auto;html=1;entryX=0.5;entryY=0;entryDx=0;entryDy=0;strokeColor=#000000;fontColor=#000000;" parent="3Ijdbuu_0H5kMbtF8D1f-1" source="4v_ZqnaojmBZI71lkWK2-191" target="4v_ZqnaojmBZI71lkWK2-196" edge="1">
          <mxGeometry relative="1" as="geometry"/>
        </mxCell>
        <mxCell id="4v_ZqnaojmBZI71lkWK2-191" value="INSTALL 메뉴로 이동" style="rounded=1;whiteSpace=wrap;html=1;absoluteArcSize=1;arcSize=14;strokeWidth=2;fontColor=#333333;fillColor=#f5f5f5;strokeColor=#666666;" parent="3Ijdbuu_0H5kMbtF8D1f-1" vertex="1">
          <mxGeometry x="884.45" y="996" width="150" height="50" as="geometry"/>
        </mxCell>
        <mxCell id="4v_ZqnaojmBZI71lkWK2-192" value="&lt;font color=&quot;#0000cc&quot;&gt;Yes&lt;/font&gt;" style="text;html=1;strokeColor=none;fillColor=none;align=center;verticalAlign=middle;whiteSpace=wrap;rounded=0;fontColor=#FF0000;" parent="3Ijdbuu_0H5kMbtF8D1f-1" vertex="1">
          <mxGeometry x="232.45" y="1660" width="40" height="20" as="geometry"/>
        </mxCell>
        <mxCell id="4v_ZqnaojmBZI71lkWK2-193" value="&lt;span style=&quot;white-space: normal&quot;&gt;Kill - Server 출력&lt;/span&gt;" style="shape=parallelogram;html=1;strokeWidth=2;perimeter=parallelogramPerimeter;whiteSpace=wrap;rounded=1;arcSize=12;size=0.23;fillColor=#d5e8d4;strokeColor=#82b366;" parent="3Ijdbuu_0H5kMbtF8D1f-1" vertex="1">
          <mxGeometry x="559.45" y="1080" width="165" height="37.5" as="geometry"/>
        </mxCell>
        <mxCell id="4v_ZqnaojmBZI71lkWK2-194" value="&lt;span style=&quot;white-space: normal&quot;&gt;Start - Server 출력&lt;/span&gt;" style="shape=parallelogram;html=1;strokeWidth=2;perimeter=parallelogramPerimeter;whiteSpace=wrap;rounded=1;arcSize=12;size=0.23;fillColor=#d5e8d4;strokeColor=#82b366;" parent="3Ijdbuu_0H5kMbtF8D1f-1" vertex="1">
          <mxGeometry x="566.95" y="1245" width="165" height="37.5" as="geometry"/>
        </mxCell>
        <mxCell id="4v_ZqnaojmBZI71lkWK2-195" style="edgeStyle=orthogonalEdgeStyle;rounded=0;orthogonalLoop=1;jettySize=auto;html=1;entryX=0.5;entryY=0;entryDx=0;entryDy=0;strokeColor=#000000;fontColor=#000000;" parent="3Ijdbuu_0H5kMbtF8D1f-1" source="4v_ZqnaojmBZI71lkWK2-196" target="4v_ZqnaojmBZI71lkWK2-222" edge="1">
          <mxGeometry relative="1" as="geometry"/>
        </mxCell>
        <mxCell id="4v_ZqnaojmBZI71lkWK2-196" value="apk 변수 선언&lt;br&gt;apk = APK Name" style="verticalLabelPosition=middle;verticalAlign=middle;html=1;shape=hexagon;perimeter=hexagonPerimeter2;arcSize=6;size=0.27;labelPosition=center;align=center;fillColor=#e1d5e7;strokeColor=#9673a6;" parent="3Ijdbuu_0H5kMbtF8D1f-1" vertex="1">
          <mxGeometry x="894.45" y="1068.75" width="130" height="41.25" as="geometry"/>
        </mxCell>
        <mxCell id="4v_ZqnaojmBZI71lkWK2-197" value="20개의 디바이스에 apk 파일 설치" style="swimlane;html=1;startSize=20;horizontal=1;containerType=tree;fontColor=#000000;align=right;" parent="3Ijdbuu_0H5kMbtF8D1f-1" vertex="1">
          <mxGeometry x="849.45" y="1280" width="495" height="460" as="geometry">
            <mxRectangle x="855" y="370" width="120" height="20" as="alternateBounds"/>
          </mxGeometry>
        </mxCell>
        <mxCell id="4v_ZqnaojmBZI71lkWK2-198" value="&lt;font color=&quot;#0000cc&quot;&gt;Yes&lt;/font&gt;" style="text;html=1;strokeColor=none;fillColor=none;align=center;verticalAlign=middle;whiteSpace=wrap;rounded=0;fontColor=#FF0000;" parent="4v_ZqnaojmBZI71lkWK2-197" vertex="1">
          <mxGeometry x="115" y="160" width="40" height="20" as="geometry"/>
        </mxCell>
        <mxCell id="4v_ZqnaojmBZI71lkWK2-199" value="No" style="text;html=1;strokeColor=none;fillColor=none;align=center;verticalAlign=middle;whiteSpace=wrap;rounded=0;fontColor=#FF0000;" parent="4v_ZqnaojmBZI71lkWK2-197" vertex="1">
          <mxGeometry x="210" y="100" width="40" height="20" as="geometry"/>
        </mxCell>
        <mxCell id="4v_ZqnaojmBZI71lkWK2-200" value="No" style="text;html=1;strokeColor=none;fillColor=none;align=center;verticalAlign=middle;whiteSpace=wrap;rounded=0;fontColor=#FF0000;" parent="4v_ZqnaojmBZI71lkWK2-197" vertex="1">
          <mxGeometry x="215" y="200" width="40" height="20" as="geometry"/>
        </mxCell>
        <mxCell id="4v_ZqnaojmBZI71lkWK2-201" value="&lt;font color=&quot;#0000cc&quot;&gt;Yes&lt;/font&gt;" style="text;html=1;strokeColor=none;fillColor=none;align=center;verticalAlign=middle;whiteSpace=wrap;rounded=0;fontColor=#FF0000;" parent="4v_ZqnaojmBZI71lkWK2-197" vertex="1">
          <mxGeometry x="115" y="260" width="40" height="20" as="geometry"/>
        </mxCell>
        <mxCell id="4v_ZqnaojmBZI71lkWK2-202" value="No" style="text;html=1;strokeColor=none;fillColor=none;align=center;verticalAlign=middle;whiteSpace=wrap;rounded=0;fontColor=#FF0000;" parent="4v_ZqnaojmBZI71lkWK2-197" vertex="1">
          <mxGeometry x="215" y="380" width="40" height="20" as="geometry"/>
        </mxCell>
        <mxCell id="4v_ZqnaojmBZI71lkWK2-203" value="입력한 .apk 파일이 &lt;br&gt;경로에 존재하는가?" style="strokeWidth=2;html=1;shape=mxgraph.flowchart.decision;whiteSpace=wrap;fillColor=#fff2cc;strokeColor=#d6b656;" parent="4v_ZqnaojmBZI71lkWK2-197" vertex="1">
          <mxGeometry x="9.999999999999996" y="190" width="200" height="70" as="geometry"/>
        </mxCell>
        <mxCell id="4v_ZqnaojmBZI71lkWK2-204" value="각 포트별 디바이스에&amp;nbsp; &lt;br&gt;입력한&amp;nbsp; .apk 파일 설치&lt;br&gt;( adb -t %%i install %apk%.apk )" style="rounded=1;whiteSpace=wrap;html=1;absoluteArcSize=1;arcSize=14;strokeWidth=2;fontColor=#333333;fillColor=#f5f5f5;strokeColor=#666666;" parent="4v_ZqnaojmBZI71lkWK2-197" vertex="1">
          <mxGeometry x="5.6299999999999955" y="290" width="208.75" height="50" as="geometry"/>
        </mxCell>
        <mxCell id="4v_ZqnaojmBZI71lkWK2-205" style="edgeStyle=orthogonalEdgeStyle;rounded=0;orthogonalLoop=1;jettySize=auto;html=1;entryX=0.5;entryY=0;entryDx=0;entryDy=0;strokeColor=#0000CC;fontColor=#000000;" parent="4v_ZqnaojmBZI71lkWK2-197" source="4v_ZqnaojmBZI71lkWK2-203" target="4v_ZqnaojmBZI71lkWK2-204" edge="1">
          <mxGeometry relative="1" as="geometry"/>
        </mxCell>
        <mxCell id="4v_ZqnaojmBZI71lkWK2-206" style="edgeStyle=orthogonalEdgeStyle;rounded=0;orthogonalLoop=1;jettySize=auto;html=1;entryX=0.5;entryY=0;entryDx=0;entryDy=0;entryPerimeter=0;strokeColor=#0000CC;fontColor=#000000;" parent="4v_ZqnaojmBZI71lkWK2-197" source="4v_ZqnaojmBZI71lkWK2-207" target="4v_ZqnaojmBZI71lkWK2-203" edge="1">
          <mxGeometry relative="1" as="geometry"/>
        </mxCell>
        <mxCell id="4v_ZqnaojmBZI71lkWK2-207" value="device가 포트에 &lt;br&gt;연결되어 있는가?" style="strokeWidth=2;html=1;shape=mxgraph.flowchart.decision;whiteSpace=wrap;fillColor=#fff2cc;strokeColor=#d6b656;" parent="4v_ZqnaojmBZI71lkWK2-197" vertex="1">
          <mxGeometry x="9.999999999999996" y="90" width="200" height="70" as="geometry"/>
        </mxCell>
        <mxCell id="4v_ZqnaojmBZI71lkWK2-208" value="자동으로 오류코드 출력" style="rounded=1;whiteSpace=wrap;html=1;absoluteArcSize=1;arcSize=14;strokeWidth=2;fontColor=#333333;fillColor=#f5f5f5;strokeColor=#666666;" parent="4v_ZqnaojmBZI71lkWK2-197" vertex="1">
          <mxGeometry x="265" y="105" width="155" height="40" as="geometry"/>
        </mxCell>
        <mxCell id="4v_ZqnaojmBZI71lkWK2-209" style="edgeStyle=orthogonalEdgeStyle;rounded=0;orthogonalLoop=1;jettySize=auto;html=1;strokeColor=#FF0000;fontColor=#000000;" parent="4v_ZqnaojmBZI71lkWK2-197" source="4v_ZqnaojmBZI71lkWK2-207" target="4v_ZqnaojmBZI71lkWK2-208" edge="1">
          <mxGeometry relative="1" as="geometry"/>
        </mxCell>
        <mxCell id="4v_ZqnaojmBZI71lkWK2-210" value="자동으로 오류코드 출력" style="rounded=1;whiteSpace=wrap;html=1;absoluteArcSize=1;arcSize=14;strokeWidth=2;fontColor=#333333;fillColor=#f5f5f5;strokeColor=#666666;" parent="4v_ZqnaojmBZI71lkWK2-197" vertex="1">
          <mxGeometry x="267.5" y="205" width="155" height="40" as="geometry"/>
        </mxCell>
        <mxCell id="4v_ZqnaojmBZI71lkWK2-211" style="edgeStyle=orthogonalEdgeStyle;rounded=0;orthogonalLoop=1;jettySize=auto;html=1;entryX=0;entryY=0.5;entryDx=0;entryDy=0;strokeColor=#FF0000;fontColor=#000000;" parent="4v_ZqnaojmBZI71lkWK2-197" source="4v_ZqnaojmBZI71lkWK2-203" target="4v_ZqnaojmBZI71lkWK2-210" edge="1">
          <mxGeometry relative="1" as="geometry"/>
        </mxCell>
        <mxCell id="4v_ZqnaojmBZI71lkWK2-212" style="edgeStyle=orthogonalEdgeStyle;rounded=0;orthogonalLoop=1;jettySize=auto;html=1;entryX=0.5;entryY=0;entryDx=0;entryDy=0;entryPerimeter=0;strokeColor=#000000;" parent="4v_ZqnaojmBZI71lkWK2-197" source="4v_ZqnaojmBZI71lkWK2-213" target="4v_ZqnaojmBZI71lkWK2-207" edge="1">
          <mxGeometry relative="1" as="geometry"/>
        </mxCell>
        <mxCell id="4v_ZqnaojmBZI71lkWK2-213" value="for 문 i=0 부터 시작&lt;br&gt;포트 i번 부터 진행" style="rounded=1;whiteSpace=wrap;html=1;absoluteArcSize=1;arcSize=14;strokeWidth=2;fontColor=#333333;fillColor=#f5f5f5;strokeColor=#666666;" parent="4v_ZqnaojmBZI71lkWK2-197" vertex="1">
          <mxGeometry x="35" y="30" width="150" height="40" as="geometry"/>
        </mxCell>
        <mxCell id="4v_ZqnaojmBZI71lkWK2-214" value="i가 20이상인가?" style="strokeWidth=2;html=1;shape=mxgraph.flowchart.decision;whiteSpace=wrap;fillColor=#fff2cc;strokeColor=#d6b656;" parent="4v_ZqnaojmBZI71lkWK2-197" vertex="1">
          <mxGeometry x="10.009999999999987" y="370" width="200" height="70" as="geometry"/>
        </mxCell>
        <mxCell id="4v_ZqnaojmBZI71lkWK2-215" style="edgeStyle=orthogonalEdgeStyle;rounded=0;orthogonalLoop=1;jettySize=auto;html=1;entryX=0.5;entryY=0;entryDx=0;entryDy=0;entryPerimeter=0;strokeColor=#000000;" parent="4v_ZqnaojmBZI71lkWK2-197" source="4v_ZqnaojmBZI71lkWK2-204" target="4v_ZqnaojmBZI71lkWK2-214" edge="1">
          <mxGeometry relative="1" as="geometry"/>
        </mxCell>
        <mxCell id="4v_ZqnaojmBZI71lkWK2-216" style="edgeStyle=orthogonalEdgeStyle;rounded=0;orthogonalLoop=1;jettySize=auto;html=1;entryX=1;entryY=0.5;entryDx=0;entryDy=0;strokeColor=#000000;" parent="4v_ZqnaojmBZI71lkWK2-197" source="4v_ZqnaojmBZI71lkWK2-217" target="4v_ZqnaojmBZI71lkWK2-213" edge="1">
          <mxGeometry relative="1" as="geometry">
            <Array as="points">
              <mxPoint x="455" y="405"/>
              <mxPoint x="455" y="50"/>
            </Array>
          </mxGeometry>
        </mxCell>
        <mxCell id="4v_ZqnaojmBZI71lkWK2-217" value="i+1" style="rounded=1;whiteSpace=wrap;html=1;absoluteArcSize=1;arcSize=14;strokeWidth=2;fontColor=#333333;fillColor=#f5f5f5;strokeColor=#666666;" parent="4v_ZqnaojmBZI71lkWK2-197" vertex="1">
          <mxGeometry x="265" y="385" width="75" height="40" as="geometry"/>
        </mxCell>
        <mxCell id="4v_ZqnaojmBZI71lkWK2-218" style="edgeStyle=orthogonalEdgeStyle;rounded=0;orthogonalLoop=1;jettySize=auto;html=1;entryX=0.5;entryY=0;entryDx=0;entryDy=0;strokeColor=#000000;exitX=1;exitY=0.5;exitDx=0;exitDy=0;" parent="4v_ZqnaojmBZI71lkWK2-197" source="4v_ZqnaojmBZI71lkWK2-208" target="4v_ZqnaojmBZI71lkWK2-217" edge="1">
          <mxGeometry relative="1" as="geometry">
            <Array as="points">
              <mxPoint x="440" y="125"/>
              <mxPoint x="440" y="265"/>
              <mxPoint x="303" y="265"/>
            </Array>
          </mxGeometry>
        </mxCell>
        <mxCell id="4v_ZqnaojmBZI71lkWK2-219" style="edgeStyle=orthogonalEdgeStyle;rounded=0;orthogonalLoop=1;jettySize=auto;html=1;strokeColor=#000000;" parent="4v_ZqnaojmBZI71lkWK2-197" source="4v_ZqnaojmBZI71lkWK2-210" target="4v_ZqnaojmBZI71lkWK2-217" edge="1">
          <mxGeometry relative="1" as="geometry">
            <Array as="points">
              <mxPoint x="303" y="280"/>
              <mxPoint x="303" y="280"/>
            </Array>
          </mxGeometry>
        </mxCell>
        <mxCell id="4v_ZqnaojmBZI71lkWK2-220" style="edgeStyle=orthogonalEdgeStyle;rounded=0;orthogonalLoop=1;jettySize=auto;html=1;entryX=0;entryY=0.5;entryDx=0;entryDy=0;strokeColor=#FF0000;" parent="4v_ZqnaojmBZI71lkWK2-197" source="4v_ZqnaojmBZI71lkWK2-214" target="4v_ZqnaojmBZI71lkWK2-217" edge="1">
          <mxGeometry relative="1" as="geometry"/>
        </mxCell>
        <mxCell id="4v_ZqnaojmBZI71lkWK2-221" style="edgeStyle=orthogonalEdgeStyle;rounded=0;orthogonalLoop=1;jettySize=auto;html=1;entryX=0.5;entryY=0;entryDx=0;entryDy=0;strokeColor=#000000;fontColor=#000000;" parent="3Ijdbuu_0H5kMbtF8D1f-1" source="4v_ZqnaojmBZI71lkWK2-222" target="4v_ZqnaojmBZI71lkWK2-223" edge="1">
          <mxGeometry relative="1" as="geometry"/>
        </mxCell>
        <mxCell id="4v_ZqnaojmBZI71lkWK2-222" value="APK Name을 입력받음" style="shape=parallelogram;html=1;strokeWidth=2;perimeter=parallelogramPerimeter;whiteSpace=wrap;rounded=1;arcSize=12;size=0.23;fillColor=#f8cecc;strokeColor=#b85450;" parent="3Ijdbuu_0H5kMbtF8D1f-1" vertex="1">
          <mxGeometry x="869.45" y="1130" width="180" height="60" as="geometry"/>
        </mxCell>
        <mxCell id="4v_ZqnaojmBZI71lkWK2-223" value="입력받은 APK Name을 &lt;br&gt;apk 변수에 적용" style="rounded=1;whiteSpace=wrap;html=1;absoluteArcSize=1;arcSize=14;strokeWidth=2;fontColor=#333333;fillColor=#f5f5f5;strokeColor=#666666;" parent="3Ijdbuu_0H5kMbtF8D1f-1" vertex="1">
          <mxGeometry x="884.45" y="1220" width="150" height="40" as="geometry"/>
        </mxCell>
        <mxCell id="4v_ZqnaojmBZI71lkWK2-224" style="edgeStyle=orthogonalEdgeStyle;rounded=0;orthogonalLoop=1;jettySize=auto;html=1;entryX=0.5;entryY=0;entryDx=0;entryDy=0;strokeColor=#000000;fontColor=#000000;" parent="3Ijdbuu_0H5kMbtF8D1f-1" source="4v_ZqnaojmBZI71lkWK2-225" target="4v_ZqnaojmBZI71lkWK2-227" edge="1">
          <mxGeometry relative="1" as="geometry"/>
        </mxCell>
        <mxCell id="4v_ZqnaojmBZI71lkWK2-225" value="하나의 포트에 연결된 디바이스에 설치된&lt;br&gt;&amp;nbsp;패키지 중 &#39;com.nexon.&#39;문자열을 가진 &lt;br&gt;모든 패키지 목록 출력&lt;br&gt;( adb -t 1 shell pm list package | FINDSTR com.nexon.* )" style="rounded=1;whiteSpace=wrap;html=1;absoluteArcSize=1;arcSize=14;strokeWidth=2;fontColor=#333333;fillColor=#f5f5f5;strokeColor=#666666;" parent="3Ijdbuu_0H5kMbtF8D1f-1" vertex="1">
          <mxGeometry x="841.95" y="1760" width="235" height="80" as="geometry"/>
        </mxCell>
        <mxCell id="4v_ZqnaojmBZI71lkWK2-226" style="edgeStyle=orthogonalEdgeStyle;rounded=0;orthogonalLoop=1;jettySize=auto;html=1;strokeColor=#000000;fontColor=#000000;entryX=1;entryY=0.5;entryDx=0;entryDy=0;" parent="3Ijdbuu_0H5kMbtF8D1f-1" source="4v_ZqnaojmBZI71lkWK2-227" edge="1">
          <mxGeometry relative="1" as="geometry">
            <mxPoint x="201.75000000000017" y="1500" as="targetPoint"/>
            <Array as="points">
              <mxPoint x="534.45" y="1910"/>
              <mxPoint x="534.45" y="1500"/>
            </Array>
          </mxGeometry>
        </mxCell>
        <mxCell id="4v_ZqnaojmBZI71lkWK2-227" value="메뉴로 이동&lt;br&gt;(cls / 커멘드 라인 지움)" style="rounded=1;whiteSpace=wrap;html=1;absoluteArcSize=1;arcSize=14;strokeWidth=2;fontColor=#333333;fillColor=#f5f5f5;strokeColor=#666666;" parent="3Ijdbuu_0H5kMbtF8D1f-1" vertex="1">
          <mxGeometry x="884.45" y="1880" width="150" height="60" as="geometry"/>
        </mxCell>
        <mxCell id="4v_ZqnaojmBZI71lkWK2-228" style="edgeStyle=orthogonalEdgeStyle;rounded=0;orthogonalLoop=1;jettySize=auto;html=1;entryX=0;entryY=0.5;entryDx=0;entryDy=0;strokeColor=#0000CC;fontColor=#000000;exitX=1;exitY=0.5;exitDx=0;exitDy=0;exitPerimeter=0;" parent="3Ijdbuu_0H5kMbtF8D1f-1" target="4v_ZqnaojmBZI71lkWK2-230" edge="1">
          <mxGeometry relative="1" as="geometry">
            <Array as="points">
              <mxPoint x="474.45000000000005" y="1785"/>
              <mxPoint x="474.45000000000005" y="1950"/>
              <mxPoint x="1354.45" y="1950"/>
              <mxPoint x="1354.45" y="1015"/>
            </Array>
            <mxPoint x="217.45" y="1785" as="sourcePoint"/>
          </mxGeometry>
        </mxCell>
        <mxCell id="4v_ZqnaojmBZI71lkWK2-308" value="" style="edgeStyle=orthogonalEdgeStyle;rounded=0;orthogonalLoop=1;jettySize=auto;html=1;strokeColor=#000000;fillColor=#FF0000;" parent="3Ijdbuu_0H5kMbtF8D1f-1" source="4v_ZqnaojmBZI71lkWK2-230" target="4v_ZqnaojmBZI71lkWK2-255" edge="1">
          <mxGeometry relative="1" as="geometry"/>
        </mxCell>
        <mxCell id="4v_ZqnaojmBZI71lkWK2-230" value="RUN 메뉴로 이동" style="rounded=1;whiteSpace=wrap;html=1;absoluteArcSize=1;arcSize=14;strokeWidth=2;fontColor=#333333;fillColor=#f5f5f5;strokeColor=#666666;" parent="3Ijdbuu_0H5kMbtF8D1f-1" vertex="1">
          <mxGeometry x="1404.45" y="990" width="150" height="50" as="geometry"/>
        </mxCell>
        <mxCell id="4v_ZqnaojmBZI71lkWK2-231" value="&lt;font color=&quot;#0000cc&quot;&gt;Yes&lt;/font&gt;" style="text;html=1;strokeColor=none;fillColor=none;align=center;verticalAlign=middle;whiteSpace=wrap;rounded=0;fontColor=#FF0000;" parent="3Ijdbuu_0H5kMbtF8D1f-1" vertex="1">
          <mxGeometry x="234.45" y="1760" width="40" height="20" as="geometry"/>
        </mxCell>
        <mxCell id="4v_ZqnaojmBZI71lkWK2-237" value="20개의 디바이스에 설치된 패키지 실행" style="swimlane;html=1;startSize=20;horizontal=1;containerType=tree;fontColor=#000000;align=right;" parent="3Ijdbuu_0H5kMbtF8D1f-1" vertex="1">
          <mxGeometry x="1370" y="1070" width="535" height="460" as="geometry">
            <mxRectangle x="1375" y="370" width="120" height="20" as="alternateBounds"/>
          </mxGeometry>
        </mxCell>
        <mxCell id="4v_ZqnaojmBZI71lkWK2-238" style="edgeStyle=orthogonalEdgeStyle;rounded=0;orthogonalLoop=1;jettySize=auto;html=1;entryX=0.5;entryY=0;entryDx=0;entryDy=0;strokeColor=#0000CC;fontColor=#000000;" parent="4v_ZqnaojmBZI71lkWK2-237" source="4v_ZqnaojmBZI71lkWK2-240" target="4v_ZqnaojmBZI71lkWK2-242" edge="1">
          <mxGeometry relative="1" as="geometry"/>
        </mxCell>
        <mxCell id="4v_ZqnaojmBZI71lkWK2-239" style="edgeStyle=orthogonalEdgeStyle;rounded=0;orthogonalLoop=1;jettySize=auto;html=1;entryX=0;entryY=0.5;entryDx=0;entryDy=0;strokeColor=#FF0000;fontColor=#000000;" parent="4v_ZqnaojmBZI71lkWK2-237" source="4v_ZqnaojmBZI71lkWK2-240" target="4v_ZqnaojmBZI71lkWK2-252" edge="1">
          <mxGeometry relative="1" as="geometry"/>
        </mxCell>
        <mxCell id="4v_ZqnaojmBZI71lkWK2-240" value="입력한 패키지 파일이 &lt;br&gt;경로에 존재하는가?" style="strokeWidth=2;html=1;shape=mxgraph.flowchart.decision;whiteSpace=wrap;fillColor=#fff2cc;strokeColor=#d6b656;" parent="4v_ZqnaojmBZI71lkWK2-237" vertex="1">
          <mxGeometry x="10" y="190" width="200" height="70" as="geometry"/>
        </mxCell>
        <mxCell id="4v_ZqnaojmBZI71lkWK2-241" style="edgeStyle=orthogonalEdgeStyle;rounded=0;orthogonalLoop=1;jettySize=auto;html=1;strokeColor=#000000;" parent="4v_ZqnaojmBZI71lkWK2-237" source="4v_ZqnaojmBZI71lkWK2-242" target="4v_ZqnaojmBZI71lkWK2-257" edge="1">
          <mxGeometry relative="1" as="geometry"/>
        </mxCell>
        <mxCell id="4v_ZqnaojmBZI71lkWK2-242" value="각 포트별 디바이스에 &lt;br&gt;입력한&amp;nbsp; 패키지 파일 실행&lt;br&gt;( adb -t %%i shell am start -n %pkg%/%pkg%.MainActivity )" style="rounded=1;whiteSpace=wrap;html=1;absoluteArcSize=1;arcSize=14;strokeWidth=2;fontColor=#333333;fillColor=#f5f5f5;strokeColor=#666666;" parent="4v_ZqnaojmBZI71lkWK2-237" vertex="1">
          <mxGeometry x="5.63" y="290" width="208.75" height="60" as="geometry"/>
        </mxCell>
        <mxCell id="4v_ZqnaojmBZI71lkWK2-243" style="edgeStyle=orthogonalEdgeStyle;rounded=0;orthogonalLoop=1;jettySize=auto;html=1;entryX=0.5;entryY=0;entryDx=0;entryDy=0;entryPerimeter=0;strokeColor=#0000CC;fontColor=#000000;" parent="4v_ZqnaojmBZI71lkWK2-237" source="4v_ZqnaojmBZI71lkWK2-245" target="4v_ZqnaojmBZI71lkWK2-240" edge="1">
          <mxGeometry relative="1" as="geometry"/>
        </mxCell>
        <mxCell id="4v_ZqnaojmBZI71lkWK2-244" style="edgeStyle=orthogonalEdgeStyle;rounded=0;orthogonalLoop=1;jettySize=auto;html=1;strokeColor=#FF0000;fontColor=#000000;" parent="4v_ZqnaojmBZI71lkWK2-237" source="4v_ZqnaojmBZI71lkWK2-245" target="4v_ZqnaojmBZI71lkWK2-248" edge="1">
          <mxGeometry relative="1" as="geometry"/>
        </mxCell>
        <mxCell id="4v_ZqnaojmBZI71lkWK2-245" value="device가 포트에 &lt;br&gt;연결되어 있는가?" style="strokeWidth=2;html=1;shape=mxgraph.flowchart.decision;whiteSpace=wrap;fillColor=#fff2cc;strokeColor=#d6b656;" parent="4v_ZqnaojmBZI71lkWK2-237" vertex="1">
          <mxGeometry x="10" y="90" width="200" height="70" as="geometry"/>
        </mxCell>
        <mxCell id="4v_ZqnaojmBZI71lkWK2-246" value="&lt;font color=&quot;#0000cc&quot;&gt;Yes&lt;/font&gt;" style="text;html=1;strokeColor=none;fillColor=none;align=center;verticalAlign=middle;whiteSpace=wrap;rounded=0;fontColor=#FF0000;" parent="4v_ZqnaojmBZI71lkWK2-237" vertex="1">
          <mxGeometry x="115" y="160" width="40" height="20" as="geometry"/>
        </mxCell>
        <mxCell id="4v_ZqnaojmBZI71lkWK2-247" style="edgeStyle=orthogonalEdgeStyle;rounded=0;orthogonalLoop=1;jettySize=auto;html=1;entryX=0.5;entryY=0;entryDx=0;entryDy=0;strokeColor=#000000;fontColor=#FF0000;" parent="4v_ZqnaojmBZI71lkWK2-237" source="4v_ZqnaojmBZI71lkWK2-248" target="4v_ZqnaojmBZI71lkWK2-260" edge="1">
          <mxGeometry relative="1" as="geometry">
            <Array as="points">
              <mxPoint x="445" y="125"/>
              <mxPoint x="445" y="270"/>
              <mxPoint x="305" y="270"/>
            </Array>
          </mxGeometry>
        </mxCell>
        <mxCell id="4v_ZqnaojmBZI71lkWK2-248" value="자동으로 오류코드 출력" style="rounded=1;whiteSpace=wrap;html=1;absoluteArcSize=1;arcSize=14;strokeWidth=2;fontColor=#333333;fillColor=#f5f5f5;strokeColor=#666666;" parent="4v_ZqnaojmBZI71lkWK2-237" vertex="1">
          <mxGeometry x="265" y="105" width="155" height="40" as="geometry"/>
        </mxCell>
        <mxCell id="4v_ZqnaojmBZI71lkWK2-249" value="No" style="text;html=1;strokeColor=none;fillColor=none;align=center;verticalAlign=middle;whiteSpace=wrap;rounded=0;fontColor=#FF0000;" parent="4v_ZqnaojmBZI71lkWK2-237" vertex="1">
          <mxGeometry x="210" y="100" width="40" height="20" as="geometry"/>
        </mxCell>
        <mxCell id="4v_ZqnaojmBZI71lkWK2-250" value="No" style="text;html=1;strokeColor=none;fillColor=none;align=center;verticalAlign=middle;whiteSpace=wrap;rounded=0;fontColor=#FF0000;" parent="4v_ZqnaojmBZI71lkWK2-237" vertex="1">
          <mxGeometry x="215" y="200" width="40" height="20" as="geometry"/>
        </mxCell>
        <mxCell id="4v_ZqnaojmBZI71lkWK2-251" style="edgeStyle=orthogonalEdgeStyle;rounded=0;orthogonalLoop=1;jettySize=auto;html=1;strokeColor=#000000;fontColor=#FF0000;" parent="4v_ZqnaojmBZI71lkWK2-237" source="4v_ZqnaojmBZI71lkWK2-252" target="4v_ZqnaojmBZI71lkWK2-260" edge="1">
          <mxGeometry relative="1" as="geometry">
            <Array as="points">
              <mxPoint x="305" y="280"/>
              <mxPoint x="305" y="280"/>
            </Array>
          </mxGeometry>
        </mxCell>
        <mxCell id="4v_ZqnaojmBZI71lkWK2-252" value="자동으로 오류코드 출력" style="rounded=1;whiteSpace=wrap;html=1;absoluteArcSize=1;arcSize=14;strokeWidth=2;fontColor=#333333;fillColor=#f5f5f5;strokeColor=#666666;" parent="4v_ZqnaojmBZI71lkWK2-237" vertex="1">
          <mxGeometry x="267.5" y="205" width="155" height="40" as="geometry"/>
        </mxCell>
        <mxCell id="4v_ZqnaojmBZI71lkWK2-253" value="&lt;font color=&quot;#0000cc&quot;&gt;Yes&lt;/font&gt;" style="text;html=1;strokeColor=none;fillColor=none;align=center;verticalAlign=middle;whiteSpace=wrap;rounded=0;fontColor=#FF0000;" parent="4v_ZqnaojmBZI71lkWK2-237" vertex="1">
          <mxGeometry x="115" y="260" width="40" height="20" as="geometry"/>
        </mxCell>
        <mxCell id="4v_ZqnaojmBZI71lkWK2-254" style="edgeStyle=orthogonalEdgeStyle;rounded=0;orthogonalLoop=1;jettySize=auto;html=1;entryX=0.5;entryY=0;entryDx=0;entryDy=0;entryPerimeter=0;strokeColor=#000000;" parent="4v_ZqnaojmBZI71lkWK2-237" source="4v_ZqnaojmBZI71lkWK2-255" target="4v_ZqnaojmBZI71lkWK2-245" edge="1">
          <mxGeometry relative="1" as="geometry"/>
        </mxCell>
        <mxCell id="4v_ZqnaojmBZI71lkWK2-255" value="for 문 i=0 부터 시작&lt;br&gt;포트 i번 부터 진행" style="rounded=1;whiteSpace=wrap;html=1;absoluteArcSize=1;arcSize=14;strokeWidth=2;fontColor=#333333;fillColor=#f5f5f5;strokeColor=#666666;" parent="4v_ZqnaojmBZI71lkWK2-237" vertex="1">
          <mxGeometry x="35" y="30" width="150" height="40" as="geometry"/>
        </mxCell>
        <mxCell id="4v_ZqnaojmBZI71lkWK2-256" style="edgeStyle=orthogonalEdgeStyle;rounded=0;orthogonalLoop=1;jettySize=auto;html=1;entryX=0;entryY=0.5;entryDx=0;entryDy=0;strokeColor=#000000;fontColor=#FF0000;" parent="4v_ZqnaojmBZI71lkWK2-237" source="4v_ZqnaojmBZI71lkWK2-257" target="4v_ZqnaojmBZI71lkWK2-260" edge="1">
          <mxGeometry relative="1" as="geometry"/>
        </mxCell>
        <mxCell id="4v_ZqnaojmBZI71lkWK2-257" value="i가 20이상인가?" style="strokeWidth=2;html=1;shape=mxgraph.flowchart.decision;whiteSpace=wrap;fillColor=#fff2cc;strokeColor=#d6b656;" parent="4v_ZqnaojmBZI71lkWK2-237" vertex="1">
          <mxGeometry x="10" y="380" width="200" height="70" as="geometry"/>
        </mxCell>
        <mxCell id="4v_ZqnaojmBZI71lkWK2-258" value="No" style="text;html=1;strokeColor=none;fillColor=none;align=center;verticalAlign=middle;whiteSpace=wrap;rounded=0;fontColor=#FF0000;" parent="4v_ZqnaojmBZI71lkWK2-237" vertex="1">
          <mxGeometry x="214.99" y="390" width="40" height="20" as="geometry"/>
        </mxCell>
        <mxCell id="4v_ZqnaojmBZI71lkWK2-259" style="edgeStyle=orthogonalEdgeStyle;rounded=0;orthogonalLoop=1;jettySize=auto;html=1;entryX=1;entryY=0.5;entryDx=0;entryDy=0;strokeColor=#000000;fontColor=#FF0000;" parent="4v_ZqnaojmBZI71lkWK2-237" source="4v_ZqnaojmBZI71lkWK2-260" target="4v_ZqnaojmBZI71lkWK2-255" edge="1">
          <mxGeometry relative="1" as="geometry">
            <Array as="points">
              <mxPoint x="495" y="415"/>
              <mxPoint x="495" y="50"/>
            </Array>
          </mxGeometry>
        </mxCell>
        <mxCell id="4v_ZqnaojmBZI71lkWK2-260" value="i+1" style="rounded=1;whiteSpace=wrap;html=1;absoluteArcSize=1;arcSize=14;strokeWidth=2;fontColor=#333333;fillColor=#f5f5f5;strokeColor=#666666;" parent="4v_ZqnaojmBZI71lkWK2-237" vertex="1">
          <mxGeometry x="267.5" y="395" width="75" height="40" as="geometry"/>
        </mxCell>
        <mxCell id="4v_ZqnaojmBZI71lkWK2-261" style="edgeStyle=orthogonalEdgeStyle;rounded=0;orthogonalLoop=1;jettySize=auto;html=1;entryX=1;entryY=0.5;entryDx=0;entryDy=0;strokeColor=#000000;fontColor=#000000;" parent="3Ijdbuu_0H5kMbtF8D1f-1" source="4v_ZqnaojmBZI71lkWK2-262" edge="1">
          <mxGeometry relative="1" as="geometry">
            <Array as="points">
              <mxPoint x="1479.45" y="2010"/>
              <mxPoint x="534.45" y="2010"/>
              <mxPoint x="534.45" y="1500"/>
            </Array>
            <mxPoint x="201.75000000000017" y="1500" as="targetPoint"/>
          </mxGeometry>
        </mxCell>
        <mxCell id="4v_ZqnaojmBZI71lkWK2-262" value="메뉴로 이동&lt;br&gt;(cls / 커멘드 라인 지움)" style="rounded=1;whiteSpace=wrap;html=1;absoluteArcSize=1;arcSize=14;strokeWidth=2;fontColor=#333333;fillColor=#f5f5f5;strokeColor=#666666;" parent="3Ijdbuu_0H5kMbtF8D1f-1" vertex="1">
          <mxGeometry x="1404.45" y="1830" width="150" height="60" as="geometry"/>
        </mxCell>
        <mxCell id="4v_ZqnaojmBZI71lkWK2-263" style="edgeStyle=orthogonalEdgeStyle;rounded=0;orthogonalLoop=1;jettySize=auto;html=1;entryX=0;entryY=0.5;entryDx=0;entryDy=0;strokeColor=#0000CC;" parent="3Ijdbuu_0H5kMbtF8D1f-1" target="4v_ZqnaojmBZI71lkWK2-265" edge="1">
          <mxGeometry relative="1" as="geometry">
            <Array as="points">
              <mxPoint x="664.45" y="1885"/>
              <mxPoint x="664.45" y="2095"/>
            </Array>
            <mxPoint x="217.45" y="1885" as="sourcePoint"/>
          </mxGeometry>
        </mxCell>
        <mxCell id="4v_ZqnaojmBZI71lkWK2-264" style="edgeStyle=orthogonalEdgeStyle;rounded=0;orthogonalLoop=1;jettySize=auto;html=1;entryX=0.5;entryY=0;entryDx=0;entryDy=0;strokeColor=#000000;fontColor=#000000;" parent="3Ijdbuu_0H5kMbtF8D1f-1" source="4v_ZqnaojmBZI71lkWK2-265" target="4v_ZqnaojmBZI71lkWK2-267" edge="1">
          <mxGeometry relative="1" as="geometry"/>
        </mxCell>
        <mxCell id="4v_ZqnaojmBZI71lkWK2-265" value="CHECK 메뉴로 이동" style="rounded=1;whiteSpace=wrap;html=1;absoluteArcSize=1;arcSize=14;strokeWidth=2;fontColor=#333333;fillColor=#f5f5f5;strokeColor=#666666;" parent="3Ijdbuu_0H5kMbtF8D1f-1" vertex="1">
          <mxGeometry x="807.5699999999999" y="2070" width="150" height="50" as="geometry"/>
        </mxCell>
        <mxCell id="4v_ZqnaojmBZI71lkWK2-266" style="edgeStyle=orthogonalEdgeStyle;rounded=0;orthogonalLoop=1;jettySize=auto;html=1;entryX=0.5;entryY=0;entryDx=0;entryDy=0;strokeColor=#000000;" parent="3Ijdbuu_0H5kMbtF8D1f-1" source="4v_ZqnaojmBZI71lkWK2-267" target="4v_ZqnaojmBZI71lkWK2-270" edge="1">
          <mxGeometry relative="1" as="geometry"/>
        </mxCell>
        <mxCell id="4v_ZqnaojmBZI71lkWK2-267" value="did 변수 선언&lt;br&gt;did = Devices ID" style="verticalLabelPosition=middle;verticalAlign=middle;html=1;shape=hexagon;perimeter=hexagonPerimeter2;arcSize=6;size=0.27;labelPosition=center;align=center;fillColor=#e1d5e7;strokeColor=#9673a6;" parent="3Ijdbuu_0H5kMbtF8D1f-1" vertex="1">
          <mxGeometry x="817.5699999999999" y="2150" width="130" height="41.25" as="geometry"/>
        </mxCell>
        <mxCell id="4v_ZqnaojmBZI71lkWK2-268" value="&lt;font color=&quot;#0000cc&quot;&gt;Yes&lt;/font&gt;" style="text;html=1;strokeColor=none;fillColor=none;align=center;verticalAlign=middle;whiteSpace=wrap;rounded=0;fontColor=#FF0000;" parent="3Ijdbuu_0H5kMbtF8D1f-1" vertex="1">
          <mxGeometry x="222.45" y="1860" width="40" height="20" as="geometry"/>
        </mxCell>
        <mxCell id="4v_ZqnaojmBZI71lkWK2-269" style="edgeStyle=orthogonalEdgeStyle;rounded=0;orthogonalLoop=1;jettySize=auto;html=1;entryX=0.5;entryY=0;entryDx=0;entryDy=0;strokeColor=#000000;" parent="3Ijdbuu_0H5kMbtF8D1f-1" source="4v_ZqnaojmBZI71lkWK2-270" target="4v_ZqnaojmBZI71lkWK2-272" edge="1">
          <mxGeometry relative="1" as="geometry"/>
        </mxCell>
        <mxCell id="4v_ZqnaojmBZI71lkWK2-270" value="Devices ID를 입력받음" style="shape=parallelogram;html=1;strokeWidth=2;perimeter=parallelogramPerimeter;whiteSpace=wrap;rounded=1;arcSize=12;size=0.23;fillColor=#f8cecc;strokeColor=#b85450;" parent="3Ijdbuu_0H5kMbtF8D1f-1" vertex="1">
          <mxGeometry x="792.5699999999999" y="2229.67" width="180" height="60" as="geometry"/>
        </mxCell>
        <mxCell id="4v_ZqnaojmBZI71lkWK2-271" style="edgeStyle=orthogonalEdgeStyle;rounded=0;orthogonalLoop=1;jettySize=auto;html=1;entryX=0.5;entryY=0;entryDx=0;entryDy=0;entryPerimeter=0;strokeColor=#000000;" parent="3Ijdbuu_0H5kMbtF8D1f-1" source="4v_ZqnaojmBZI71lkWK2-272" target="4v_ZqnaojmBZI71lkWK2-275" edge="1">
          <mxGeometry relative="1" as="geometry"/>
        </mxCell>
        <mxCell id="4v_ZqnaojmBZI71lkWK2-272" value="OS Version&amp;nbsp;출력" style="shape=parallelogram;html=1;strokeWidth=2;perimeter=parallelogramPerimeter;whiteSpace=wrap;rounded=1;arcSize=12;size=0.23;fillColor=#d5e8d4;strokeColor=#82b366;" parent="3Ijdbuu_0H5kMbtF8D1f-1" vertex="1">
          <mxGeometry x="800.0699999999999" y="2320" width="165" height="37.5" as="geometry"/>
        </mxCell>
        <mxCell id="4v_ZqnaojmBZI71lkWK2-273" style="edgeStyle=orthogonalEdgeStyle;rounded=0;orthogonalLoop=1;jettySize=auto;html=1;entryX=0;entryY=0.5;entryDx=0;entryDy=0;strokeColor=#FF0000;" parent="3Ijdbuu_0H5kMbtF8D1f-1" source="4v_ZqnaojmBZI71lkWK2-275" target="4v_ZqnaojmBZI71lkWK2-277" edge="1">
          <mxGeometry relative="1" as="geometry"/>
        </mxCell>
        <mxCell id="4v_ZqnaojmBZI71lkWK2-274" style="edgeStyle=orthogonalEdgeStyle;rounded=0;orthogonalLoop=1;jettySize=auto;html=1;entryX=0.5;entryY=0;entryDx=0;entryDy=0;strokeColor=#0000CC;" parent="3Ijdbuu_0H5kMbtF8D1f-1" source="4v_ZqnaojmBZI71lkWK2-275" target="4v_ZqnaojmBZI71lkWK2-280" edge="1">
          <mxGeometry relative="1" as="geometry"/>
        </mxCell>
        <mxCell id="4v_ZqnaojmBZI71lkWK2-275" value="입력한 Device ID와 &lt;br&gt;연결된 디바이스 정보가 &lt;br&gt;일치하는가?" style="strokeWidth=2;html=1;shape=mxgraph.flowchart.decision;whiteSpace=wrap;fillColor=#fff2cc;strokeColor=#d6b656;" parent="3Ijdbuu_0H5kMbtF8D1f-1" vertex="1">
          <mxGeometry x="777.5699999999999" y="2390" width="210" height="100" as="geometry"/>
        </mxCell>
        <mxCell id="4v_ZqnaojmBZI71lkWK2-276" style="edgeStyle=orthogonalEdgeStyle;rounded=0;orthogonalLoop=1;jettySize=auto;html=1;entryX=1;entryY=0.5;entryDx=0;entryDy=0;strokeColor=#000000;" parent="3Ijdbuu_0H5kMbtF8D1f-1" source="4v_ZqnaojmBZI71lkWK2-277" target="4v_ZqnaojmBZI71lkWK2-283" edge="1">
          <mxGeometry relative="1" as="geometry">
            <Array as="points">
              <mxPoint x="1113.07" y="2629"/>
            </Array>
          </mxGeometry>
        </mxCell>
        <mxCell id="4v_ZqnaojmBZI71lkWK2-277" value="error 결과 출력" style="rounded=1;whiteSpace=wrap;html=1;absoluteArcSize=1;arcSize=14;strokeWidth=2;fontColor=#333333;fillColor=#f5f5f5;strokeColor=#666666;" parent="3Ijdbuu_0H5kMbtF8D1f-1" vertex="1">
          <mxGeometry x="1037.57" y="2415" width="150" height="50" as="geometry"/>
        </mxCell>
        <mxCell id="4v_ZqnaojmBZI71lkWK2-278" value="No" style="text;html=1;strokeColor=none;fillColor=none;align=center;verticalAlign=middle;whiteSpace=wrap;rounded=0;fontColor=#FF0000;" parent="3Ijdbuu_0H5kMbtF8D1f-1" vertex="1">
          <mxGeometry x="987.5699999999999" y="2414.17" width="40" height="20" as="geometry"/>
        </mxCell>
        <mxCell id="4v_ZqnaojmBZI71lkWK2-279" style="edgeStyle=orthogonalEdgeStyle;rounded=0;orthogonalLoop=1;jettySize=auto;html=1;entryX=0.5;entryY=0;entryDx=0;entryDy=0;strokeColor=#000000;" parent="3Ijdbuu_0H5kMbtF8D1f-1" source="4v_ZqnaojmBZI71lkWK2-280" target="4v_ZqnaojmBZI71lkWK2-283" edge="1">
          <mxGeometry relative="1" as="geometry"/>
        </mxCell>
        <mxCell id="4v_ZqnaojmBZI71lkWK2-280" value="입력한 Device ID에 맞는&lt;br&gt;OS Version 출력&lt;br&gt;(&amp;nbsp;adb -s %did% shell getprop ro.build.version.release)" style="rounded=1;whiteSpace=wrap;html=1;absoluteArcSize=1;arcSize=14;strokeWidth=2;fontColor=#333333;fillColor=#f5f5f5;strokeColor=#666666;" parent="3Ijdbuu_0H5kMbtF8D1f-1" vertex="1">
          <mxGeometry x="731.95" y="2530" width="301.25" height="50" as="geometry"/>
        </mxCell>
        <mxCell id="4v_ZqnaojmBZI71lkWK2-281" value="&lt;font color=&quot;#0000cc&quot;&gt;Yes&lt;/font&gt;" style="text;html=1;strokeColor=none;fillColor=none;align=center;verticalAlign=middle;whiteSpace=wrap;rounded=0;fontColor=#FF0000;" parent="3Ijdbuu_0H5kMbtF8D1f-1" vertex="1">
          <mxGeometry x="892.5699999999999" y="2500" width="40" height="20" as="geometry"/>
        </mxCell>
        <mxCell id="4v_ZqnaojmBZI71lkWK2-282" style="edgeStyle=orthogonalEdgeStyle;rounded=0;orthogonalLoop=1;jettySize=auto;html=1;entryX=0.5;entryY=0;entryDx=0;entryDy=0;entryPerimeter=0;strokeColor=#000000;" parent="3Ijdbuu_0H5kMbtF8D1f-1" source="4v_ZqnaojmBZI71lkWK2-283" target="4v_ZqnaojmBZI71lkWK2-286" edge="1">
          <mxGeometry relative="1" as="geometry"/>
        </mxCell>
        <mxCell id="4v_ZqnaojmBZI71lkWK2-283" value="API Version&amp;nbsp;출력" style="shape=parallelogram;html=1;strokeWidth=2;perimeter=parallelogramPerimeter;whiteSpace=wrap;rounded=1;arcSize=12;size=0.23;fillColor=#d5e8d4;strokeColor=#82b366;" parent="3Ijdbuu_0H5kMbtF8D1f-1" vertex="1">
          <mxGeometry x="800.0699999999999" y="2610" width="165" height="37.5" as="geometry"/>
        </mxCell>
        <mxCell id="4v_ZqnaojmBZI71lkWK2-284" style="edgeStyle=orthogonalEdgeStyle;rounded=0;orthogonalLoop=1;jettySize=auto;html=1;entryX=0;entryY=0.5;entryDx=0;entryDy=0;strokeColor=#FF0000;" parent="3Ijdbuu_0H5kMbtF8D1f-1" source="4v_ZqnaojmBZI71lkWK2-286" target="4v_ZqnaojmBZI71lkWK2-288" edge="1">
          <mxGeometry relative="1" as="geometry"/>
        </mxCell>
        <mxCell id="4v_ZqnaojmBZI71lkWK2-285" style="edgeStyle=orthogonalEdgeStyle;rounded=0;orthogonalLoop=1;jettySize=auto;html=1;entryX=0.5;entryY=0;entryDx=0;entryDy=0;strokeColor=#0000CC;" parent="3Ijdbuu_0H5kMbtF8D1f-1" source="4v_ZqnaojmBZI71lkWK2-286" target="4v_ZqnaojmBZI71lkWK2-292" edge="1">
          <mxGeometry relative="1" as="geometry">
            <mxPoint x="882.5699999999999" y="2820" as="targetPoint"/>
          </mxGeometry>
        </mxCell>
        <mxCell id="4v_ZqnaojmBZI71lkWK2-286" value="입력한 Device ID와 &lt;br&gt;연결된 디바이스 정보가 &lt;br&gt;일치하는가?" style="strokeWidth=2;html=1;shape=mxgraph.flowchart.decision;whiteSpace=wrap;fillColor=#fff2cc;strokeColor=#d6b656;" parent="3Ijdbuu_0H5kMbtF8D1f-1" vertex="1">
          <mxGeometry x="777.5699999999999" y="2680" width="210" height="100" as="geometry"/>
        </mxCell>
        <mxCell id="4v_ZqnaojmBZI71lkWK2-287" style="edgeStyle=orthogonalEdgeStyle;rounded=0;orthogonalLoop=1;jettySize=auto;html=1;entryX=1;entryY=0.5;entryDx=0;entryDy=0;strokeColor=#000000;" parent="3Ijdbuu_0H5kMbtF8D1f-1" source="4v_ZqnaojmBZI71lkWK2-288" target="4v_ZqnaojmBZI71lkWK2-294" edge="1">
          <mxGeometry relative="1" as="geometry">
            <Array as="points">
              <mxPoint x="1105.07" y="2935"/>
            </Array>
          </mxGeometry>
        </mxCell>
        <mxCell id="4v_ZqnaojmBZI71lkWK2-288" value="error 결과 출력" style="rounded=1;whiteSpace=wrap;html=1;absoluteArcSize=1;arcSize=14;strokeWidth=2;fontColor=#333333;fillColor=#f5f5f5;strokeColor=#666666;" parent="3Ijdbuu_0H5kMbtF8D1f-1" vertex="1">
          <mxGeometry x="1037.57" y="2705" width="150" height="50" as="geometry"/>
        </mxCell>
        <mxCell id="4v_ZqnaojmBZI71lkWK2-289" value="No" style="text;html=1;strokeColor=none;fillColor=none;align=center;verticalAlign=middle;whiteSpace=wrap;rounded=0;fontColor=#FF0000;" parent="3Ijdbuu_0H5kMbtF8D1f-1" vertex="1">
          <mxGeometry x="987.5699999999999" y="2704.17" width="40" height="20" as="geometry"/>
        </mxCell>
        <mxCell id="4v_ZqnaojmBZI71lkWK2-290" value="&lt;font color=&quot;#0000cc&quot;&gt;Yes&lt;/font&gt;" style="text;html=1;strokeColor=none;fillColor=none;align=center;verticalAlign=middle;whiteSpace=wrap;rounded=0;fontColor=#FF0000;" parent="3Ijdbuu_0H5kMbtF8D1f-1" vertex="1">
          <mxGeometry x="892.5699999999999" y="2790" width="40" height="20" as="geometry"/>
        </mxCell>
        <mxCell id="4v_ZqnaojmBZI71lkWK2-291" style="edgeStyle=orthogonalEdgeStyle;rounded=0;orthogonalLoop=1;jettySize=auto;html=1;entryX=0.5;entryY=0;entryDx=0;entryDy=0;strokeColor=#000000;" parent="3Ijdbuu_0H5kMbtF8D1f-1" source="4v_ZqnaojmBZI71lkWK2-292" target="4v_ZqnaojmBZI71lkWK2-294" edge="1">
          <mxGeometry relative="1" as="geometry"/>
        </mxCell>
        <mxCell id="4v_ZqnaojmBZI71lkWK2-292" value="입력한 Device ID에 맞는&lt;br&gt;API Version 출력&lt;br&gt;(adb -s %did% shell getprop ro.build.version.sdk)" style="rounded=1;whiteSpace=wrap;html=1;absoluteArcSize=1;arcSize=14;strokeWidth=2;fontColor=#333333;fillColor=#f5f5f5;strokeColor=#666666;" parent="3Ijdbuu_0H5kMbtF8D1f-1" vertex="1">
          <mxGeometry x="742.5799999999999" y="2820" width="280" height="50" as="geometry"/>
        </mxCell>
        <mxCell id="4v_ZqnaojmBZI71lkWK2-293" style="edgeStyle=orthogonalEdgeStyle;rounded=0;orthogonalLoop=1;jettySize=auto;html=1;entryX=1;entryY=0.5;entryDx=0;entryDy=0;strokeColor=#000000;" parent="3Ijdbuu_0H5kMbtF8D1f-1" source="4v_ZqnaojmBZI71lkWK2-294" edge="1">
          <mxGeometry relative="1" as="geometry">
            <Array as="points">
              <mxPoint x="534.45" y="3115"/>
              <mxPoint x="534.45" y="1500"/>
            </Array>
            <mxPoint x="201.75000000000017" y="1500" as="targetPoint"/>
          </mxGeometry>
        </mxCell>
        <mxCell id="4v_ZqnaojmBZI71lkWK2-294" value="메뉴로 이동&lt;br&gt;(cls / 커멘드 라인 지움)" style="rounded=1;whiteSpace=wrap;html=1;absoluteArcSize=1;arcSize=14;strokeWidth=2;fontColor=#333333;fillColor=#f5f5f5;strokeColor=#666666;" parent="3Ijdbuu_0H5kMbtF8D1f-1" vertex="1">
          <mxGeometry x="807.5699999999999" y="2910" width="150" height="50" as="geometry"/>
        </mxCell>
        <mxCell id="4v_ZqnaojmBZI71lkWK2-295" style="edgeStyle=orthogonalEdgeStyle;rounded=0;orthogonalLoop=1;jettySize=auto;html=1;entryX=0;entryY=0.5;entryDx=0;entryDy=0;strokeColor=#FF0000;" parent="3Ijdbuu_0H5kMbtF8D1f-1" target="4v_ZqnaojmBZI71lkWK2-297" edge="1">
          <mxGeometry relative="1" as="geometry">
            <mxPoint x="217.45" y="1986.25" as="sourcePoint"/>
          </mxGeometry>
        </mxCell>
        <mxCell id="4v_ZqnaojmBZI71lkWK2-296" style="edgeStyle=orthogonalEdgeStyle;rounded=0;orthogonalLoop=1;jettySize=auto;html=1;entryX=0.5;entryY=0;entryDx=0;entryDy=0;strokeColor=#000000;" parent="3Ijdbuu_0H5kMbtF8D1f-1" source="4v_ZqnaojmBZI71lkWK2-297" target="4v_ZqnaojmBZI71lkWK2-299" edge="1">
          <mxGeometry relative="1" as="geometry"/>
        </mxCell>
        <mxCell id="4v_ZqnaojmBZI71lkWK2-297" value="유효하지 않음. &lt;br&gt;다른 번호 입력 안내" style="shape=parallelogram;html=1;strokeWidth=2;perimeter=parallelogramPerimeter;whiteSpace=wrap;rounded=1;arcSize=12;size=0.23;fillColor=#d5e8d4;strokeColor=#82b366;" parent="3Ijdbuu_0H5kMbtF8D1f-1" vertex="1">
          <mxGeometry x="354.45" y="2000" width="160" height="62.5" as="geometry"/>
        </mxCell>
        <mxCell id="4v_ZqnaojmBZI71lkWK2-298" style="edgeStyle=orthogonalEdgeStyle;rounded=0;orthogonalLoop=1;jettySize=auto;html=1;entryX=0.5;entryY=0;entryDx=0;entryDy=0;strokeColor=#000000;" parent="3Ijdbuu_0H5kMbtF8D1f-1" source="4v_ZqnaojmBZI71lkWK2-299" target="4v_ZqnaojmBZI71lkWK2-302" edge="1">
          <mxGeometry relative="1" as="geometry"/>
        </mxCell>
        <mxCell id="4v_ZqnaojmBZI71lkWK2-299" value="각 메뉴 번호 재 설명" style="shape=parallelogram;html=1;strokeWidth=2;perimeter=parallelogramPerimeter;whiteSpace=wrap;rounded=1;arcSize=12;size=0.23;fillColor=#d5e8d4;strokeColor=#82b366;" parent="3Ijdbuu_0H5kMbtF8D1f-1" vertex="1">
          <mxGeometry x="354.45" y="2096" width="160" height="64" as="geometry"/>
        </mxCell>
        <mxCell id="4v_ZqnaojmBZI71lkWK2-300" value="No" style="text;html=1;strokeColor=none;fillColor=none;align=center;verticalAlign=middle;whiteSpace=wrap;rounded=0;fontColor=#FF0000;" parent="3Ijdbuu_0H5kMbtF8D1f-1" vertex="1">
          <mxGeometry x="249.45" y="1960" width="40" height="20" as="geometry"/>
        </mxCell>
        <mxCell id="4v_ZqnaojmBZI71lkWK2-301" style="edgeStyle=orthogonalEdgeStyle;rounded=0;orthogonalLoop=1;jettySize=auto;html=1;entryX=1;entryY=0.5;entryDx=0;entryDy=0;strokeColor=#000000;" parent="3Ijdbuu_0H5kMbtF8D1f-1" source="4v_ZqnaojmBZI71lkWK2-302" edge="1">
          <mxGeometry relative="1" as="geometry">
            <Array as="points">
              <mxPoint x="534.45" y="2231"/>
              <mxPoint x="534.45" y="1500"/>
            </Array>
            <mxPoint x="201.75000000000017" y="1500" as="targetPoint"/>
          </mxGeometry>
        </mxCell>
        <mxCell id="4v_ZqnaojmBZI71lkWK2-302" value="메뉴로 이동&lt;br&gt;(cls / 커멘드 라인 지움)" style="rounded=1;whiteSpace=wrap;html=1;absoluteArcSize=1;arcSize=14;strokeWidth=2;fontColor=#333333;fillColor=#f5f5f5;strokeColor=#666666;" parent="3Ijdbuu_0H5kMbtF8D1f-1" vertex="1">
          <mxGeometry x="359.45" y="2205.75" width="150" height="50" as="geometry"/>
        </mxCell>
        <mxCell id="4v_ZqnaojmBZI71lkWK2-303" style="edgeStyle=orthogonalEdgeStyle;rounded=0;orthogonalLoop=1;jettySize=auto;html=1;entryX=0.5;entryY=0;entryDx=0;entryDy=0;entryPerimeter=0;strokeColor=#000000;fontColor=#000000;" parent="3Ijdbuu_0H5kMbtF8D1f-1" source="4v_ZqnaojmBZI71lkWK2-223" target="4v_ZqnaojmBZI71lkWK2-213" edge="1">
          <mxGeometry relative="1" as="geometry">
            <mxPoint x="959.45" y="1260" as="sourcePoint"/>
            <mxPoint x="959.45" y="1500" as="targetPoint"/>
          </mxGeometry>
        </mxCell>
        <mxCell id="4v_ZqnaojmBZI71lkWK2-304" style="edgeStyle=orthogonalEdgeStyle;rounded=0;orthogonalLoop=1;jettySize=auto;html=1;entryX=0.5;entryY=0;entryDx=0;entryDy=0;strokeColor=#000000;" parent="3Ijdbuu_0H5kMbtF8D1f-1" source="4v_ZqnaojmBZI71lkWK2-214" target="4v_ZqnaojmBZI71lkWK2-225" edge="1">
          <mxGeometry relative="1" as="geometry"/>
        </mxCell>
        <mxCell id="4v_ZqnaojmBZI71lkWK2-306" style="edgeStyle=orthogonalEdgeStyle;rounded=0;orthogonalLoop=1;jettySize=auto;html=1;entryX=0.5;entryY=0;entryDx=0;entryDy=0;strokeColor=#000000;fontColor=#FF0000;" parent="3Ijdbuu_0H5kMbtF8D1f-1" source="4v_ZqnaojmBZI71lkWK2-257" target="4v_ZqnaojmBZI71lkWK2-262" edge="1">
          <mxGeometry relative="1" as="geometry"/>
        </mxCell>
      </root>
    </mxGraphModel>
  </diagram>
</mxfile>
